{
DisplayStrings = (
/F042,
/F042
);
customParameters = (
{
name = vendorID;
value = PfEd;
},
{
name = glyphOrder;
value = (
    ".notdef",
    uni0000,
    uni000D,
    uniE02C,
    uniE02D,
    uniE02F,
    uniE006,
    uniE007,
    uniE008,
    uniE009,
    uniE00A,
    uniE00B,
    uniE00C,
    uniE00D,
    uniE00E,
    uniE00F,
    uniE010,
    uniE011,
    uniE012,
    uniE013,
    uniE01C,
    uniE01D,
    uniE01E,
    uniE01F,
    uniE024,
    uniE02B,
    uniE032,
    uniE033,
    uniE034,
    uniE022,
    uniE03B,
    uniE03C,
    uniE000,
    uniF000
);
}
);
date = "2013-05-18 19:44:31 +0000";
familyName = "Teambition-UI-Icons";
fontMaster = (
{
ascender = 480;
capHeight = 700;
customParameters = (
{
name = typoAscender;
value = 480;
},
{
name = typoDescender;
value = -32;
},
{
name = typoLineGap;
value = 46;
}
);
descender = "-32";
id = "D92E8CCE-7036-4CD1-A654-23E4C8CE3D75";
weightValue = 400;
widthValue = 5;
xHeight = 500;
}
);
glyphs = (
{
glyphname = F001;
lastChange = "2013-10-21 02:06:46 +0800";
layers = (
{
layerId = "D92E8CCE-7036-4CD1-A654-23E4C8CE3D75";
name = Regular;
paths = (
{
closed = 1;
nodes = (
"92 259 OFFCURVE",
"118 233 OFFCURVE",
"118 200 CURVE SMOOTH",
"118 167 OFFCURVE",
"92 141 OFFCURVE",
"59 141 CURVE SMOOTH",
"26 141 OFFCURVE",
"0 167 OFFCURVE",
"0 200 CURVE SMOOTH",
"0 233 OFFCURVE",
"26 259 OFFCURVE",
"59 259 CURVE SMOOTH"
);
},
{
closed = 1;
nodes = (
"289 259 OFFCURVE",
"315 233 OFFCURVE",
"315 200 CURVE SMOOTH",
"315 167 OFFCURVE",
"289 141 OFFCURVE",
"256 141 CURVE SMOOTH",
"223 141 OFFCURVE",
"197 167 OFFCURVE",
"197 200 CURVE SMOOTH",
"197 233 OFFCURVE",
"223 259 OFFCURVE",
"256 259 CURVE SMOOTH"
);
},
{
closed = 1;
nodes = (
"486 259 OFFCURVE",
"512 233 OFFCURVE",
"512 200 CURVE SMOOTH",
"512 167 OFFCURVE",
"486 141 OFFCURVE",
"453 141 CURVE SMOOTH",
"420 141 OFFCURVE",
"394 167 OFFCURVE",
"394 200 CURVE SMOOTH",
"394 233 OFFCURVE",
"420 259 OFFCURVE",
"453 259 CURVE SMOOTH"
);
}
);
width = 512;
}
);
unicode = F001;
},
{
glyphname = F002;
lastChange = "2013-10-21 08:26:21 +0800";
layers = (
{
layerId = "D92E8CCE-7036-4CD1-A654-23E4C8CE3D75";
name = Regular;
paths = (
{
closed = 1;
nodes = (
"170 165 LINE",
"170 165 OFFCURVE",
"361 395 OFFCURVE",
"489 434 CURVE",
"512 434 OFFCURVE",
"512 412 OFFCURVE",
"512 412 CURVE SMOOTH",
"512 412 OFFCURVE",
"299 232 OFFCURVE",
"203 26 CURVE",
"190 14 OFFCURVE",
"180 26 OFFCURVE",
"180 26 CURVE SMOOTH",
"180 26 OFFCURVE",
"24 185 OFFCURVE",
"0 201 CURVE",
"2 228 OFFCURVE",
"46 251 OFFCURVE",
"46 251 CURVE"
);
}
);
width = 512;
}
);
unicode = F002;
},
{
glyphname = F003;
lastChange = "2013-10-18 07:22:11 +0800";
layers = (
{
layerId = "D92E8CCE-7036-4CD1-A654-23E4C8CE3D75";
name = Regular;
paths = (
{
closed = 1;
nodes = (
"444 366 LINE SMOOTH",
"447 363 OFFCURVE",
"449 359 OFFCURVE",
"449 355 CURVE SMOOTH",
"449 350 OFFCURVE",
"447 346 OFFCURVE",
"444 343 CURVE SMOOTH",
"319 219 LINE SMOOTH",
"312 212 OFFCURVE",
"312 204 OFFCURVE",
"319 196 CURVE",
"444 72 LINE SMOOTH",
"447 69 OFFCURVE",
"449 65 OFFCURVE",
"449 61 CURVE SMOOTH",
"449 56 OFFCURVE",
"447 52 OFFCURVE",
"444 49 CURVE SMOOTH",
"399 4 LINE SMOOTH",
"396 1 OFFCURVE",
"392 -1 OFFCURVE",
"388 -1 CURVE SMOOTH",
"383 -1 OFFCURVE",
"379 1 OFFCURVE",
"376 4 CURVE SMOOTH",
"252 128 LINE SMOOTH",
"249 131 OFFCURVE",
"245 133 OFFCURVE",
"241 133 CURVE SMOOTH",
"236 133 OFFCURVE",
"232 131 OFFCURVE",
"229 128 CURVE SMOOTH",
"105 4 LINE SMOOTH",
"102 1 OFFCURVE",
"98 -1 OFFCURVE",
"94 -1 CURVE SMOOTH",
"89 -1 OFFCURVE",
"85 1 OFFCURVE",
"82 4 CURVE SMOOTH",
"37 49 LINE SMOOTH",
"34 52 OFFCURVE",
"32 56 OFFCURVE",
"32 61 CURVE SMOOTH",
"32 65 OFFCURVE",
"34 69 OFFCURVE",
"37 72 CURVE SMOOTH",
"161 196 LINE",
"168 204 OFFCURVE",
"168 212 OFFCURVE",
"161 219 CURVE SMOOTH",
"37 343 LINE SMOOTH",
"29 351 OFFCURVE",
"29 359 OFFCURVE",
"37 366 CURVE",
"82 411 LINE SMOOTH",
"85 414 OFFCURVE",
"89 416 OFFCURVE",
"94 416 CURVE SMOOTH",
"98 416 OFFCURVE",
"102 414 OFFCURVE",
"105 411 CURVE SMOOTH",
"229 287 LINE SMOOTH",
"232 284 OFFCURVE",
"236 282 OFFCURVE",
"241 282 CURVE SMOOTH",
"245 282 OFFCURVE",
"249 284 OFFCURVE",
"252 287 CURVE SMOOTH",
"376 411 LINE",
"383 419 OFFCURVE",
"391 419 OFFCURVE",
"399 411 CURVE SMOOTH"
);
}
);
width = 512;
}
);
unicode = F003;
},
{
glyphname = F004;
lastChange = "2013-10-24 04:00:28 +0800";
layers = (
{
layerId = "D92E8CCE-7036-4CD1-A654-23E4C8CE3D75";
name = Regular;
paths = (
{
closed = 1;
nodes = (
"288 160 LINE",
"288 0 LINE SMOOTH",
"288 -9 OFFCURVE",
"285 -16 OFFCURVE",
"279 -22 CURVE SMOOTH",
"272 -29 OFFCURVE",
"265 -32 OFFCURVE",
"256 -32 CURVE SMOOTH",
"224 -32 LINE SMOOTH",
"215 -32 OFFCURVE",
"208 -29 OFFCURVE",
"202 -22 CURVE",
"195 -16 OFFCURVE",
"192 -9 OFFCURVE",
"192 0 CURVE SMOOTH",
"192 160 LINE",
"32 160 LINE SMOOTH",
"23 160 OFFCURVE",
"16 163 OFFCURVE",
"10 170 CURVE",
"3 176 OFFCURVE",
"0 183 OFFCURVE",
"0 192 CURVE SMOOTH",
"0 224 LINE SMOOTH",
"0 233 OFFCURVE",
"3 240 OFFCURVE",
"10 247 CURVE SMOOTH",
"16 253 OFFCURVE",
"23 256 OFFCURVE",
"32 256 CURVE SMOOTH",
"192 256 LINE",
"192 416 LINE SMOOTH",
"192 425 OFFCURVE",
"195 432 OFFCURVE",
"202 439 CURVE SMOOTH",
"208 445 OFFCURVE",
"215 448 OFFCURVE",
"224 448 CURVE SMOOTH",
"256 448 LINE SMOOTH",
"265 448 OFFCURVE",
"272 445 OFFCURVE",
"279 439 CURVE",
"285 432 OFFCURVE",
"288 425 OFFCURVE",
"288 416 CURVE SMOOTH",
"288 256 LINE",
"448 256 LINE SMOOTH",
"457 256 OFFCURVE",
"464 253 OFFCURVE",
"471 247 CURVE",
"477 240 OFFCURVE",
"480 233 OFFCURVE",
"480 224 CURVE SMOOTH",
"480 192 LINE SMOOTH",
"480 183 OFFCURVE",
"477 176 OFFCURVE",
"471 170 CURVE SMOOTH",
"464 163 OFFCURVE",
"457 160 OFFCURVE",
"448 160 CURVE SMOOTH"
);
}
);
width = 512;
}
);
unicode = F004;
},
{
glyphname = F005;
lastChange = "2013-10-18 10:28:14 +0800";
layers = (
{
layerId = "D92E8CCE-7036-4CD1-A654-23E4C8CE3D75";
name = Regular;
paths = (
{
closed = 1;
nodes = (
"256 80 LINE",
"32 304 LINE",
"98 368 LINE",
"257 207 LINE",
"417 368 LINE",
"481 304 LINE"
);
}
);
width = 512;
}
);
unicode = F005;
},
{
glyphname = F006;
lastChange = "2013-10-18 10:28:41 +0800";
layers = (
{
layerId = "D92E8CCE-7036-4CD1-A654-23E4C8CE3D75";
name = Regular;
paths = (
{
closed = 1;
nodes = (
"257 368 LINE",
"481 144 LINE",
"415 80 LINE",
"256 241 LINE",
"96 80 LINE",
"32 144 LINE"
);
}
);
width = 512;
}
);
unicode = F006;
},
{
glyphname = F007;
lastChange = "2013-10-21 01:40:53 +0800";
layers = (
{
layerId = "D92E8CCE-7036-4CD1-A654-23E4C8CE3D75";
name = Regular;
paths = (
{
closed = 1;
nodes = (
"96 192 LINE",
"320 416 LINE",
"384 350 LINE",
"223 191 LINE",
"384 31 LINE",
"320 -33 LINE"
);
}
);
width = 512;
}
);
unicode = F007;
},
{
glyphname = F008;
lastChange = "2013-10-21 01:40:36 +0800";
layers = (
{
layerId = "D92E8CCE-7036-4CD1-A654-23E4C8CE3D75";
name = Regular;
paths = (
{
closed = 1;
nodes = (
"193 -33 LINE",
"128 31 LINE",
"289 192 LINE",
"128 350 LINE",
"192 416 LINE",
"416 192 LINE"
);
}
);
width = 512;
}
);
unicode = F008;
},
{
glyphname = F009;
lastChange = "2013-10-18 07:25:42 +0800";
layers = (
{
layerId = "D92E8CCE-7036-4CD1-A654-23E4C8CE3D75";
name = Regular;
paths = (
{
closed = 1;
nodes = (
"0 407 LINE",
"146 407 LINE",
"146 443 LINE",
"146 480 LINE",
"366 480 LINE",
"366 443 LINE",
"366 407 LINE",
"512 407 LINE",
"512 334 LINE",
"0 334 LINE"
);
},
{
closed = 1;
nodes = (
"183 443 LINE",
"183 407 LINE",
"329 407 LINE",
"329 443 LINE"
);
},
{
closed = 1;
nodes = (
"426 297 OFFCURVE",
"366 297 OFFCURVE",
"475 297 CURVE",
"475 41 LINE SMOOTH",
"475 -19 OFFCURVE",
"426 -32 OFFCURVE",
"366 -32 CURVE SMOOTH",
"146 -32 LINE SMOOTH",
"86 -32 OFFCURVE",
"37 -19 OFFCURVE",
"37 41 CURVE SMOOTH",
"37 297 LINE",
"155 297 OFFCURVE",
"86 297 OFFCURVE",
"146 297 CURVE SMOOTH",
"366 297 LINE SMOOTH"
);
},
{
closed = 1;
nodes = (
"402 41 LINE",
"402 224 LINE",
"329 224 LINE",
"329 41 LINE"
);
},
{
closed = 1;
nodes = (
"293 41 LINE",
"293 224 LINE",
"219 224 LINE",
"219 41 LINE"
);
},
{
closed = 1;
nodes = (
"183 41 LINE",
"183 224 LINE",
"110 224 LINE",
"110 41 LINE"
);
}
);
width = 512;
}
);
unicode = F009;
},
{
glyphname = F00A;
lastChange = "2013-10-18 07:25:55 +0800";
layers = (
{
layerId = "D92E8CCE-7036-4CD1-A654-23E4C8CE3D75";
name = Regular;
paths = (
{
closed = 1;
nodes = (
"202 28 LINE SMOOTH",
"202 28 OFFCURVE",
"206 158 OFFCURVE",
"62 167 CURVE SMOOTH",
"165 264 OFFCURVE",
"300 407 OFFCURVE",
"331 440 CURVE SMOOTH",
"412 478 OFFCURVE",
"512 400 OFFCURVE",
"472 304 CURVE SMOOTH"
);
},
{
closed = 1;
nodes = (
"35 126 OFFCURVE",
"168 127 OFFCURVE",
"168 1 CURVE SMOOTH",
"95 -16 OFFCURVE",
"0 -30 OFFCURVE",
"0 -30 CURVE SMOOTH",
"35 126 LINE SMOOTH"
);
}
);
width = 512;
}
);
unicode = F00A;
},
{
glyphname = F00B;
lastChange = "2013-10-24 06:45:04 +0800";
layers = (
{
layerId = "D92E8CCE-7036-4CD1-A654-23E4C8CE3D75";
name = Regular;
paths = (
{
closed = 1;
nodes = (
"115 480 OFFCURVE",
"0 365 OFFCURVE",
"0 224 CURVE SMOOTH",
"0 83 OFFCURVE",
"115 -32 OFFCURVE",
"256 -32 CURVE SMOOTH",
"397 -32 OFFCURVE",
"512 83 OFFCURVE",
"512 224 CURVE SMOOTH",
"512 365 OFFCURVE",
"397 480 OFFCURVE",
"256 480 CURVE SMOOTH"
);
},
{
closed = 1;
nodes = (
"143 19 OFFCURVE",
"51 111 OFFCURVE",
"51 224 CURVE SMOOTH",
"51 337 OFFCURVE",
"143 429 OFFCURVE",
"256 429 CURVE SMOOTH",
"369 429 OFFCURVE",
"461 337 OFFCURVE",
"461 224 CURVE SMOOTH",
"461 111 OFFCURVE",
"369 19 OFFCURVE",
"256 19 CURVE SMOOTH"
);
},
{
closed = 1;
nodes = (
"272 352 OFFCURVE",
"284 339 OFFCURVE",
"284 324 CURVE SMOOTH",
"284 124 LINE SMOOTH",
"284 109 OFFCURVE",
"272 96 OFFCURVE",
"256 96 CURVE SMOOTH",
"240 96 OFFCURVE",
"228 109 OFFCURVE",
"228 124 CURVE SMOOTH",
"228 324 LINE SMOOTH",
"228 339 OFFCURVE",
"240 352 OFFCURVE",
"256 352 CURVE SMOOTH"
);
},
{
closed = 1;
nodes = (
"128 240 OFFCURVE",
"141 252 OFFCURVE",
"156 252 CURVE SMOOTH",
"356 252 LINE SMOOTH",
"371 252 OFFCURVE",
"384 240 OFFCURVE",
"384 224 CURVE SMOOTH",
"384 208 OFFCURVE",
"371 196 OFFCURVE",
"356 196 CURVE SMOOTH",
"156 196 LINE SMOOTH",
"141 196 OFFCURVE",
"128 208 OFFCURVE",
"128 224 CURVE SMOOTH"
);
}
);
width = 512;
}
);
unicode = F00B;
},
{
glyphname = F00C;
lastChange = "2013-10-18 07:51:14 +0800";
layers = (
{
layerId = "D92E8CCE-7036-4CD1-A654-23E4C8CE3D75";
name = Regular;
paths = (
{
closed = 1;
nodes = (
"115 -32 OFFCURVE",
"0 83 OFFCURVE",
"0 224 CURVE SMOOTH",
"0 365 OFFCURVE",
"115 480 OFFCURVE",
"256 480 CURVE SMOOTH",
"397 480 OFFCURVE",
"512 365 OFFCURVE",
"512 224 CURVE SMOOTH",
"512 83 OFFCURVE",
"397 -32 OFFCURVE",
"256 -32 CURVE SMOOTH"
);
},
{
closed = 1;
nodes = (
"150 416 OFFCURVE",
"64 330 OFFCURVE",
"64 224 CURVE SMOOTH",
"64 118 OFFCURVE",
"150 32 OFFCURVE",
"256 32 CURVE SMOOTH",
"362 32 OFFCURVE",
"448 118 OFFCURVE",
"448 224 CURVE SMOOTH",
"448 330 OFFCURVE",
"362 416 OFFCURVE",
"256 416 CURVE SMOOTH"
);
},
{
closed = 1;
nodes = (
"293 224 LINE",
"314 192 LINE",
"333 173 OFFCURVE",
"356 195 OFFCURVE",
"356 195 CURVE",
"367 206 OFFCURVE",
"367 225 OFFCURVE",
"356 237 CURVE SMOOTH",
"278 322 LINE",
"278 322 OFFCURVE",
"278 322 OFFCURVE",
"278 323 CURVE",
"275 325 LINE SMOOTH",
"270 331 OFFCURVE",
"263 334 OFFCURVE",
"256 334 CURVE SMOOTH",
"248 334 OFFCURVE",
"241 331 OFFCURVE",
"236 325 CURVE SMOOTH",
"233 323 LINE SMOOTH",
"233 322 OFFCURVE",
"233 322 OFFCURVE",
"233 322 CURVE",
"155 237 LINE SMOOTH",
"144 225 OFFCURVE",
"144 206 OFFCURVE",
"155 195 CURVE",
"155 195 OFFCURVE",
"178 173 OFFCURVE",
"197 192 CURVE",
"219 224 LINE",
"219 151 LINE SMOOTH",
"219 134 OFFCURVE",
"239 114 OFFCURVE",
"254 114 CURVE SMOOTH",
"258 114 LINE SMOOTH",
"273 114 OFFCURVE",
"293 134 OFFCURVE",
"293 151 CURVE SMOOTH"
);
}
);
width = 512;
}
);
unicode = F00C;
},
{
glyphname = F00D;
lastChange = "2013-10-18 07:51:22 +0800";
layers = (
{
layerId = "D92E8CCE-7036-4CD1-A654-23E4C8CE3D75";
name = Regular;
paths = (
{
closed = 1;
nodes = (
"115 -32 OFFCURVE",
"0 83 OFFCURVE",
"0 224 CURVE SMOOTH",
"0 365 OFFCURVE",
"115 480 OFFCURVE",
"256 480 CURVE SMOOTH",
"397 480 OFFCURVE",
"512 365 OFFCURVE",
"512 224 CURVE SMOOTH",
"512 83 OFFCURVE",
"397 -32 OFFCURVE",
"256 -32 CURVE SMOOTH"
);
},
{
closed = 1;
nodes = (
"150 416 OFFCURVE",
"64 330 OFFCURVE",
"64 224 CURVE SMOOTH",
"64 118 OFFCURVE",
"150 32 OFFCURVE",
"256 32 CURVE SMOOTH",
"362 32 OFFCURVE",
"448 118 OFFCURVE",
"448 224 CURVE SMOOTH",
"448 330 OFFCURVE",
"362 416 OFFCURVE",
"256 416 CURVE SMOOTH"
);
},
{
closed = 1;
nodes = (
"307 189 LINE",
"303 181 OFFCURVE",
"296 173 OFFCURVE",
"284 164 CURVE SMOOTH",
"272 156 OFFCURVE",
"262 151 OFFCURVE",
"254 151 CURVE SMOOTH",
"250 151 OFFCURVE",
"248 153 OFFCURVE",
"248 157 CURVE SMOOTH",
"248 158 OFFCURVE",
"249 160 OFFCURVE",
"250 163 CURVE SMOOTH",
"287 247 LINE",
"243 272 LINE",
"190 154 LINE SMOOTH",
"188 149 OFFCURVE",
"187 145 OFFCURVE",
"187 140 CURVE SMOOTH",
"187 133 OFFCURVE",
"190 127 OFFCURVE",
"194 122 CURVE SMOOTH",
"199 117 OFFCURVE",
"205 114 OFFCURVE",
"212 114 CURVE SMOOTH",
"230 114 OFFCURVE",
"251 120 OFFCURVE",
"273 133 CURVE SMOOTH",
"296 146 OFFCURVE",
"311 159 OFFCURVE",
"317 174 CURVE",
"318 175 LINE"
);
},
{
closed = 1;
nodes = (
"323 327 OFFCURVE",
"321 330 OFFCURVE",
"316 333 CURVE SMOOTH",
"311 336 OFFCURVE",
"306 337 OFFCURVE",
"300 337 CURVE SMOOTH",
"292 337 OFFCURVE",
"284 335 OFFCURVE",
"276 332 CURVE SMOOTH",
"267 327 OFFCURVE",
"261 322 OFFCURVE",
"257 315 CURVE",
"256 312 OFFCURVE",
"256 310 OFFCURVE",
"256 307 CURVE SMOOTH",
"256 303 OFFCURVE",
"258 299 OFFCURVE",
"263 296 CURVE SMOOTH",
"268 293 OFFCURVE",
"273 292 OFFCURVE",
"280 292 CURVE SMOOTH",
"287 292 OFFCURVE",
"295 294 OFFCURVE",
"303 297 CURVE SMOOTH",
"312 302 OFFCURVE",
"319 307 OFFCURVE",
"322 315 CURVE SMOOTH",
"323 317 OFFCURVE",
"323 319 OFFCURVE",
"323 321 CURVE SMOOTH"
);
}
);
width = 512;
}
);
unicode = F00D;
},
{
glyphname = F00E;
lastChange = "2013-10-18 07:51:32 +0800";
layers = (
{
layerId = "D92E8CCE-7036-4CD1-A654-23E4C8CE3D75";
name = Regular;
paths = (
{
closed = 1;
nodes = (
"496 423 OFFCURVE",
"451 464 OFFCURVE",
"410 469 CURVE SMOOTH",
"307 479 OFFCURVE",
"205 479 OFFCURVE",
"102 469 CURVE SMOOTH",
"61 464 OFFCURVE",
"16 423 OFFCURVE",
"9 380 CURVE SMOOTH",
"0 314 OFFCURVE",
"0 242 OFFCURVE",
"9 176 CURVE SMOOTH",
"16 133 OFFCURVE",
"46 101 OFFCURVE",
"87 96 CURVE SMOOTH",
"102 94 OFFCURVE",
"115 97 OFFCURVE",
"129 96 CURVE",
"146 -12 LINE",
"146 -19 OFFCURVE",
"151 -26 OFFCURVE",
"158 -29 CURVE SMOOTH",
"160 -30 OFFCURVE",
"162 -31 OFFCURVE",
"165 -31 CURVE SMOOTH",
"169 -31 OFFCURVE",
"174 -29 OFFCURVE",
"177 -25 CURVE SMOOTH",
"298 96 LINE",
"340 97 OFFCURVE",
"359 96 OFFCURVE",
"425 96 CURVE SMOOTH",
"467 96 OFFCURVE",
"496 133 OFFCURVE",
"503 176 CURVE SMOOTH",
"512 242 OFFCURVE",
"512 314 OFFCURVE",
"503 380 CURVE SMOOTH"
);
}
);
width = 512;
}
);
unicode = F00E;
},
{
glyphname = F00F;
lastChange = "2013-10-18 07:51:41 +0800";
layers = (
{
layerId = "D92E8CCE-7036-4CD1-A654-23E4C8CE3D75";
name = Regular;
paths = (
{
closed = 1;
nodes = (
"64 416 LINE SMOOTH",
"50 416 OFFCURVE",
"36 411 OFFCURVE",
"22 402 CURVE SMOOTH",
"7 393 OFFCURVE",
"0 382 OFFCURVE",
"0 371 CURVE SMOOTH",
"0 361 LINE",
"6 356 OFFCURVE",
"14 350 OFFCURVE",
"24 342 CURVE",
"33 334 OFFCURVE",
"51 320 OFFCURVE",
"78 299 CURVE SMOOTH",
"104 278 OFFCURVE",
"128 259 OFFCURVE",
"150 244 CURVE",
"171 228 OFFCURVE",
"193 214 OFFCURVE",
"214 201 CURVE SMOOTH",
"235 188 OFFCURVE",
"249 181 OFFCURVE",
"256 181 CURVE SMOOTH",
"263 181 OFFCURVE",
"278 187 OFFCURVE",
"299 200 CURVE SMOOTH",
"320 213 OFFCURVE",
"341 227 OFFCURVE",
"363 243 CURVE SMOOTH",
"384 259 OFFCURVE",
"408 277 OFFCURVE",
"434 298 CURVE SMOOTH",
"460 319 OFFCURVE",
"478 333 OFFCURVE",
"488 342 CURVE",
"498 350 OFFCURVE",
"506 356 OFFCURVE",
"512 361 CURVE",
"512 370 LINE SMOOTH",
"512 382 OFFCURVE",
"505 393 OFFCURVE",
"491 402 CURVE SMOOTH",
"476 411 OFFCURVE",
"462 416 OFFCURVE",
"448 416 CURVE SMOOTH"
);
},
{
closed = 1;
nodes = (
"0 32 LINE SMOOTH",
"0 31 OFFCURVE",
"0 30 OFFCURVE",
"1 29 CURVE",
"1 27 OFFCURVE",
"2 24 OFFCURVE",
"5 21 CURVE",
"7 17 OFFCURVE",
"10 14 OFFCURVE",
"14 11 CURVE SMOOTH",
"18 8 OFFCURVE",
"24 6 OFFCURVE",
"33 4 CURVE",
"42 1 OFFCURVE",
"52 0 OFFCURVE",
"64 0 CURVE SMOOTH",
"448 0 LINE SMOOTH",
"460 0 OFFCURVE",
"470 1 OFFCURVE",
"479 4 CURVE",
"488 6 OFFCURVE",
"494 8 OFFCURVE",
"498 11 CURVE SMOOTH",
"502 14 OFFCURVE",
"505 17 OFFCURVE",
"508 21 CURVE",
"510 24 OFFCURVE",
"511 27 OFFCURVE",
"512 29 CURVE",
"512 30 OFFCURVE",
"512 31 OFFCURVE",
"512 32 CURVE SMOOTH",
"512 289 LINE",
"507 285 OFFCURVE",
"501 279 OFFCURVE",
"492 272 CURVE SMOOTH",
"483 265 OFFCURVE",
"467 252 OFFCURVE",
"444 233 CURVE SMOOTH",
"420 214 OFFCURVE",
"398 198 OFFCURVE",
"378 184 CURVE SMOOTH",
"357 169 OFFCURVE",
"335 156 OFFCURVE",
"312 145 CURVE SMOOTH",
"289 133 OFFCURVE",
"270 127 OFFCURVE",
"256 127 CURVE SMOOTH",
"234 127 OFFCURVE",
"202 141 OFFCURVE",
"160 168 CURVE SMOOTH",
"118 195 OFFCURVE",
"81 221 OFFCURVE",
"48 248 CURVE SMOOTH",
"15 275 OFFCURVE",
"-1 288 OFFCURVE",
"0 288 CURVE"
);
}
);
width = 512;
}
);
unicode = F00F;
},
{
glyphname = F010;
lastChange = "2013-10-18 07:52:00 +0800";
layers = (
{
layerId = "D92E8CCE-7036-4CD1-A654-23E4C8CE3D75";
name = Regular;
paths = (
{
closed = 1;
nodes = (
"365 442 LINE SMOOTH",
"370 442 OFFCURVE",
"379 442 OFFCURVE",
"385 437 CURVE",
"387 436 OFFCURVE",
"390 433 OFFCURVE",
"390 424 CURVE",
"390 416 OFFCURVE",
"385 401 OFFCURVE",
"369 388 CURVE",
"350 373 OFFCURVE",
"320 361 OFFCURVE",
"297 361 CURVE",
"290 361 OFFCURVE",
"287 362 OFFCURVE",
"287 362 CURVE",
"287 362 OFFCURVE",
"287 362 OFFCURVE",
"287 362 CURVE SMOOTH",
"282 370 OFFCURVE",
"292 402 OFFCURVE",
"318 424 CURVE",
"331 435 OFFCURVE",
"349 442 OFFCURVE",
"365 442 CURVE SMOOTH"
);
},
{
closed = 1;
nodes = (
"340 480 OFFCURVE",
"311 471 OFFCURVE",
"288 452 CURVE",
"249 419 OFFCURVE",
"226 360 OFFCURVE",
"257 334 CURVE",
"267 327 OFFCURVE",
"281 323 OFFCURVE",
"297 323 CURVE",
"331 323 OFFCURVE",
"372 338 OFFCURVE",
"398 360 CURVE",
"437 393 OFFCURVE",
"444 439 OFFCURVE",
"414 465 CURVE",
"401 475 OFFCURVE",
"384 480 OFFCURVE",
"365 480 CURVE"
);
},
{
closed = 1;
nodes = (
"163 442 OFFCURVE",
"181 435 OFFCURVE",
"194 424 CURVE",
"220 402 OFFCURVE",
"230 369 OFFCURVE",
"226 362 CURVE SMOOTH",
"225 362 OFFCURVE",
"223 361 OFFCURVE",
"215 361 CURVE",
"192 361 OFFCURVE",
"162 373 OFFCURVE",
"143 388 CURVE",
"127 401 OFFCURVE",
"122 416 OFFCURVE",
"122 424 CURVE",
"122 433 OFFCURVE",
"126 436 OFFCURVE",
"127 437 CURVE",
"133 442 OFFCURVE",
"142 442 OFFCURVE",
"147 442 CURVE"
);
},
{
closed = 1;
nodes = (
"128 480 OFFCURVE",
"111 475 OFFCURVE",
"98 465 CURVE",
"68 439 OFFCURVE",
"75 393 OFFCURVE",
"114 360 CURVE",
"140 338 OFFCURVE",
"181 323 OFFCURVE",
"215 323 CURVE",
"231 323 OFFCURVE",
"245 327 OFFCURVE",
"255 334 CURVE",
"286 360 OFFCURVE",
"263 419 OFFCURVE",
"224 452 CURVE",
"201 471 OFFCURVE",
"172 480 OFFCURVE",
"147 480 CURVE"
);
},
{
closed = 1;
nodes = (
"473 283 LINE",
"473 304 OFFCURVE",
"454 322 OFFCURVE",
"433 322 CURVE",
"275 322 LINE SMOOTH",
"275 165 LINE SMOOTH",
"473 165 LINE SMOOTH"
);
},
{
closed = 1;
nodes = (
"274 -32 LINE SMOOTH",
"437 -32 LINE",
"457 -32 OFFCURVE",
"473 -16 OFFCURVE",
"473 5 CURVE",
"473 126 LINE SMOOTH",
"275 126 LINE SMOOTH"
);
},
{
closed = 1;
nodes = (
"237 322 LINE SMOOTH",
"79 322 LINE",
"58 322 OFFCURVE",
"39 304 OFFCURVE",
"39 283 CURVE",
"39 165 LINE SMOOTH",
"237 165 LINE SMOOTH"
);
},
{
closed = 1;
nodes = (
"39 5 LINE",
"39 -16 OFFCURVE",
"55 -32 OFFCURVE",
"75 -32 CURVE",
"238 -32 LINE SMOOTH",
"237 126 LINE SMOOTH",
"39 126 LINE SMOOTH"
);
}
);
width = 512;
}
);
unicode = F010;
},
{
glyphname = F011;
lastChange = "2013-10-18 07:52:09 +0800";
layers = (
{
layerId = "D92E8CCE-7036-4CD1-A654-23E4C8CE3D75";
name = Regular;
paths = (
{
closed = 1;
nodes = (
"493 172 OFFCURVE",
"486 142 OFFCURVE",
"474 113 CURVE SMOOTH",
"461 83 OFFCURVE",
"445 58 OFFCURVE",
"423 37 CURVE SMOOTH",
"402 16 OFFCURVE",
"377 -1 OFFCURVE",
"348 -13 CURVE SMOOTH",
"319 -26 OFFCURVE",
"288 -32 OFFCURVE",
"256 -32 CURVE SMOOTH",
"224 -32 OFFCURVE",
"193 -26 OFFCURVE",
"164 -13 CURVE SMOOTH",
"135 -1 OFFCURVE",
"110 16 OFFCURVE",
"89 37 CURVE SMOOTH",
"67 58 OFFCURVE",
"51 83 OFFCURVE",
"38 113 CURVE SMOOTH",
"26 142 OFFCURVE",
"19 172 OFFCURVE",
"19 204 CURVE SMOOTH",
"19 242 OFFCURVE",
"28 277 OFFCURVE",
"44 310 CURVE SMOOTH",
"61 343 OFFCURVE",
"84 370 OFFCURVE",
"114 393 CURVE SMOOTH",
"123 399 OFFCURVE",
"132 402 OFFCURVE",
"143 401 CURVE SMOOTH",
"154 399 OFFCURVE",
"163 394 OFFCURVE",
"169 385 CURVE SMOOTH",
"176 377 OFFCURVE",
"178 367 OFFCURVE",
"176 356 CURVE SMOOTH",
"175 345 OFFCURVE",
"170 337 OFFCURVE",
"161 330 CURVE SMOOTH",
"121 300 OFFCURVE",
"98 254 OFFCURVE",
"98 204 CURVE SMOOTH",
"98 118 OFFCURVE",
"169 47 OFFCURVE",
"256 47 CURVE SMOOTH",
"343 47 OFFCURVE",
"414 118 OFFCURVE",
"414 204 CURVE SMOOTH",
"414 254 OFFCURVE",
"391 300 OFFCURVE",
"351 330 CURVE SMOOTH",
"342 337 OFFCURVE",
"337 345 OFFCURVE",
"335 356 CURVE SMOOTH",
"334 367 OFFCURVE",
"336 377 OFFCURVE",
"343 385 CURVE SMOOTH",
"349 394 OFFCURVE",
"358 399 OFFCURVE",
"369 401 CURVE SMOOTH",
"380 402 OFFCURVE",
"389 399 OFFCURVE",
"398 393 CURVE SMOOTH",
"428 370 OFFCURVE",
"451 343 OFFCURVE",
"468 310 CURVE SMOOTH",
"484 277 OFFCURVE",
"493 242 OFFCURVE",
"493 204 CURVE",
"493 204 LINE"
);
},
{
closed = 1;
nodes = (
"295 244 LINE SMOOTH",
"295 233 OFFCURVE",
"291 224 OFFCURVE",
"284 216 CURVE SMOOTH",
"276 208 OFFCURVE",
"267 204 OFFCURVE",
"256 204 CURVE SMOOTH",
"245 204 OFFCURVE",
"236 208 OFFCURVE",
"228 216 CURVE SMOOTH",
"221 224 OFFCURVE",
"217 233 OFFCURVE",
"217 244 CURVE SMOOTH",
"217 441 LINE SMOOTH",
"217 451 OFFCURVE",
"221 461 OFFCURVE",
"228 468 CURVE SMOOTH",
"236 476 OFFCURVE",
"245 480 OFFCURVE",
"256 480 CURVE SMOOTH",
"267 480 OFFCURVE",
"276 476 OFFCURVE",
"284 468 CURVE SMOOTH",
"291 461 OFFCURVE",
"295 451 OFFCURVE",
"295 441 CURVE SMOOTH"
);
}
);
width = 512;
}
);
unicode = F011;
},
{
glyphname = F012;
lastChange = "2013-10-18 07:52:17 +0800";
layers = (
{
layerId = "D92E8CCE-7036-4CD1-A654-23E4C8CE3D75";
name = Regular;
paths = (
{
closed = 1;
nodes = (
"353 425 OFFCURVE",
"160 425 OFFCURVE",
"59 425 CURVE SMOOTH",
"22 425 OFFCURVE",
"0 404 OFFCURVE",
"0 371 CURVE SMOOTH",
"0 314 OFFCURVE",
"0 137 OFFCURVE",
"0 78 CURVE SMOOTH",
"0 45 OFFCURVE",
"22 23 OFFCURVE",
"57 23 CURVE SMOOTH",
"104 23 OFFCURVE",
"325 23 OFFCURVE",
"325 23 CURVE",
"325 23 LINE",
"351 23 LINE",
"351 23 LINE",
"351 23 OFFCURVE",
"405 23 OFFCURVE",
"454 23 CURVE SMOOTH",
"484 23 OFFCURVE",
"512 43 OFFCURVE",
"512 78 CURVE SMOOTH",
"512 136 OFFCURVE",
"512 313 OFFCURVE",
"512 371 CURVE SMOOTH",
"512 400 OFFCURVE",
"491 425 OFFCURVE",
"454 425 CURVE SMOOTH"
);
},
{
closed = 1;
nodes = (
"439 96 LINE",
"73 96 LINE",
"73 352 LINE",
"439 352 LINE"
);
},
{
closed = 1;
nodes = (
"183 242 LINE",
"183 315 LINE",
"110 315 LINE",
"110 242 LINE"
);
},
{
closed = 1;
nodes = (
"293 242 LINE",
"293 315 LINE",
"219 315 LINE",
"219 242 LINE"
);
},
{
closed = 1;
nodes = (
"366 133 LINE",
"366 206 LINE",
"146 206 LINE",
"146 133 LINE"
);
},
{
closed = 1;
nodes = (
"402 242 LINE",
"402 315 LINE",
"329 315 LINE",
"329 242 LINE"
);
}
);
width = 512;
}
);
unicode = F012;
},
{
glyphname = F013;
lastChange = "2013-10-18 07:52:26 +0800";
layers = (
{
layerId = "D92E8CCE-7036-4CD1-A654-23E4C8CE3D75";
name = Regular;
paths = (
{
closed = 1;
nodes = (
"344 307 LINE",
"512 284 LINE",
"379 163 LINE",
"414 -32 LINE",
"253 61 LINE",
"98 -32 LINE",
"131 160 LINE",
"0 284 LINE",
"165 309 LINE",
"256 480 LINE"
);
}
);
width = 512;
}
);
unicode = F013;
},
{
glyphname = F014;
lastChange = "2013-10-18 07:52:35 +0800";
layers = (
{
layerId = "D92E8CCE-7036-4CD1-A654-23E4C8CE3D75";
name = Regular;
paths = (
{
closed = 1;
nodes = (
"402 297 LINE SMOOTH",
"443 297 OFFCURVE",
"476 264 OFFCURVE",
"476 224 CURVE SMOOTH",
"476 41 LINE SMOOTH",
"476 0 OFFCURVE",
"443 -32 OFFCURVE",
"402 -32 CURVE SMOOTH",
"110 -32 LINE SMOOTH",
"69 -32 OFFCURVE",
"36 0 OFFCURVE",
"36 41 CURVE SMOOTH",
"36 224 LINE SMOOTH",
"36 264 OFFCURVE",
"69 297 OFFCURVE",
"110 297 CURVE SMOOTH"
);
},
{
closed = 1;
nodes = (
"183 480 LINE SMOOTH",
"142 480 OFFCURVE",
"109 447 OFFCURVE",
"109 406 CURVE SMOOTH",
"109 297 LINE",
"133 297 OFFCURVE",
"158 297 OFFCURVE",
"183 297 CURVE",
"183 370 LINE SMOOTH",
"183 390 OFFCURVE",
"199 408 OFFCURVE",
"219 408 CURVE SMOOTH",
"293 408 LINE SMOOTH",
"313 408 OFFCURVE",
"330 390 OFFCURVE",
"330 370 CURVE SMOOTH",
"330 297 LINE",
"354 297 OFFCURVE",
"379 297 OFFCURVE",
"402 297 CURVE",
"402 406 LINE SMOOTH",
"402 447 OFFCURVE",
"370 480 OFFCURVE",
"329 480 CURVE SMOOTH"
);
}
);
width = 512;
}
);
unicode = F014;
},
{
glyphname = F015;
lastChange = "2013-10-18 07:52:44 +0800";
layers = (
{
layerId = "D92E8CCE-7036-4CD1-A654-23E4C8CE3D75";
name = Regular;
paths = (
{
closed = 1;
nodes = (
"226 400 OFFCURVE",
"195 394 OFFCURVE",
"166 382 CURVE SMOOTH",
"137 370 OFFCURVE",
"112 355 OFFCURVE",
"93 338 CURVE SMOOTH",
"74 321 OFFCURVE",
"57 303 OFFCURVE",
"43 286 CURVE SMOOTH",
"28 269 OFFCURVE",
"18 254 OFFCURVE",
"11 242 CURVE SMOOTH",
"1 224 LINE",
"2 219 OFFCURVE",
"5 212 OFFCURVE",
"9 205 CURVE",
"12 197 OFFCURVE",
"21 183 OFFCURVE",
"36 163 CURVE SMOOTH",
"51 142 OFFCURVE",
"67 124 OFFCURVE",
"85 109 CURVE",
"102 93 OFFCURVE",
"127 79 OFFCURVE",
"158 66 CURVE SMOOTH",
"189 53 OFFCURVE",
"222 47 OFFCURVE",
"257 47 CURVE SMOOTH",
"289 47 OFFCURVE",
"320 53 OFFCURVE",
"350 66 CURVE SMOOTH",
"379 78 OFFCURVE",
"404 92 OFFCURVE",
"423 109 CURVE SMOOTH",
"442 126 OFFCURVE",
"458 143 OFFCURVE",
"473 162 CURVE SMOOTH",
"488 180 OFFCURVE",
"498 194 OFFCURVE",
"504 205 CURVE",
"510 215 OFFCURVE",
"513 221 OFFCURVE",
"513 223 CURVE",
"511 228 OFFCURVE",
"508 234 OFFCURVE",
"504 242 CURVE",
"499 250 OFFCURVE",
"489 264 OFFCURVE",
"473 285 CURVE SMOOTH",
"457 305 OFFCURVE",
"440 323 OFFCURVE",
"422 339 CURVE",
"403 354 OFFCURVE",
"379 368 OFFCURVE",
"350 381 CURVE SMOOTH",
"320 394 OFFCURVE",
"289 400 OFFCURVE",
"257 400 CURVE SMOOTH"
);
},
{
closed = 1;
nodes = (
"314 124 OFFCURVE",
"289 113 OFFCURVE",
"258 113 CURVE SMOOTH",
"227 113 OFFCURVE",
"201 124 OFFCURVE",
"181 145 CURVE SMOOTH",
"161 166 OFFCURVE",
"151 193 OFFCURVE",
"151 224 CURVE SMOOTH",
"151 255 OFFCURVE",
"161 281 OFFCURVE",
"181 302 CURVE SMOOTH",
"201 323 OFFCURVE",
"227 334 OFFCURVE",
"258 334 CURVE SMOOTH",
"289 334 OFFCURVE",
"314 323 OFFCURVE",
"334 302 CURVE SMOOTH",
"354 281 OFFCURVE",
"364 255 OFFCURVE",
"364 224 CURVE SMOOTH",
"364 193 OFFCURVE",
"354 166 OFFCURVE",
"334 145 CURVE SMOOTH"
);
},
{
closed = 1;
nodes = (
"290 283 OFFCURVE",
"275 290 OFFCURVE",
"258 290 CURVE SMOOTH",
"240 290 OFFCURVE",
"225 283 OFFCURVE",
"212 270 CURVE SMOOTH",
"199 257 OFFCURVE",
"193 241 OFFCURVE",
"193 224 CURVE SMOOTH",
"193 206 OFFCURVE",
"199 190 OFFCURVE",
"212 177 CURVE SMOOTH",
"225 164 OFFCURVE",
"240 157 OFFCURVE",
"258 157 CURVE SMOOTH",
"275 157 OFFCURVE",
"290 164 OFFCURVE",
"303 177 CURVE",
"315 190 OFFCURVE",
"321 206 OFFCURVE",
"321 224 CURVE SMOOTH",
"321 241 OFFCURVE",
"315 257 OFFCURVE",
"303 270 CURVE"
);
}
);
width = 512;
}
);
unicode = F015;
},
{
glyphname = F016;
lastChange = "2013-10-18 07:52:53 +0800";
layers = (
{
layerId = "D92E8CCE-7036-4CD1-A654-23E4C8CE3D75";
name = Regular;
paths = (
{
closed = 1;
nodes = (
"341 193 OFFCURVE",
"354 226 OFFCURVE",
"354 263 CURVE SMOOTH",
"354 301 OFFCURVE",
"341 334 OFFCURVE",
"314 361 CURVE SMOOTH",
"287 388 OFFCURVE",
"254 401 OFFCURVE",
"217 401 CURVE SMOOTH",
"179 401 OFFCURVE",
"146 388 OFFCURVE",
"119 361 CURVE SMOOTH",
"92 334 OFFCURVE",
"79 301 OFFCURVE",
"79 263 CURVE SMOOTH",
"79 226 OFFCURVE",
"92 193 OFFCURVE",
"119 166 CURVE SMOOTH",
"146 139 OFFCURVE",
"179 126 OFFCURVE",
"217 126 CURVE SMOOTH",
"254 126 OFFCURVE",
"287 139 OFFCURVE",
"314 166 CURVE",
"314 166 LINE"
);
},
{
closed = 1;
nodes = (
"462 -32 OFFCURVE",
"452 -28 OFFCURVE",
"445 -20 CURVE SMOOTH",
"339 85 LINE",
"303 59 OFFCURVE",
"262 47 OFFCURVE",
"217 47 CURVE SMOOTH",
"187 47 OFFCURVE",
"159 52 OFFCURVE",
"132 64 CURVE SMOOTH",
"79 87 OFFCURVE",
"40 126 OFFCURVE",
"17 179 CURVE SMOOTH",
"6 206 OFFCURVE",
"0 234 OFFCURVE",
"0 263 CURVE SMOOTH",
"0 293 OFFCURVE",
"6 321 OFFCURVE",
"17 347 CURVE SMOOTH",
"28 374 OFFCURVE",
"44 397 OFFCURVE",
"63 417 CURVE SMOOTH",
"82 436 OFFCURVE",
"106 451 OFFCURVE",
"132 463 CURVE SMOOTH",
"159 474 OFFCURVE",
"187 480 OFFCURVE",
"217 480 CURVE SMOOTH",
"246 480 OFFCURVE",
"274 474 OFFCURVE",
"301 463 CURVE SMOOTH",
"327 451 OFFCURVE",
"350 436 OFFCURVE",
"370 417 CURVE SMOOTH",
"389 397 OFFCURVE",
"405 374 OFFCURVE",
"416 347 CURVE SMOOTH",
"427 321 OFFCURVE",
"433 293 OFFCURVE",
"433 263 CURVE SMOOTH",
"433 218 OFFCURVE",
"421 177 OFFCURVE",
"395 141 CURVE",
"501 35 LINE SMOOTH",
"508 27 OFFCURVE",
"512 18 OFFCURVE",
"512 7 CURVE SMOOTH",
"512 -3 OFFCURVE",
"508 -13 OFFCURVE",
"500 -20 CURVE SMOOTH",
"493 -28 OFFCURVE",
"483 -32 OFFCURVE",
"473 -32 CURVE SMOOTH"
);
}
);
width = 512;
}
);
unicode = F016;
},
{
glyphname = F017;
lastChange = "2013-10-18 07:53:00 +0800";
layers = (
{
layerId = "D92E8CCE-7036-4CD1-A654-23E4C8CE3D75";
name = Regular;
paths = (
{
closed = 1;
nodes = (
"341 193 OFFCURVE",
"354 226 OFFCURVE",
"354 263 CURVE SMOOTH",
"354 301 OFFCURVE",
"341 334 OFFCURVE",
"314 361 CURVE SMOOTH",
"287 388 OFFCURVE",
"254 401 OFFCURVE",
"217 401 CURVE SMOOTH",
"179 401 OFFCURVE",
"146 388 OFFCURVE",
"119 361 CURVE SMOOTH",
"92 334 OFFCURVE",
"79 301 OFFCURVE",
"79 263 CURVE SMOOTH",
"79 226 OFFCURVE",
"92 193 OFFCURVE",
"119 166 CURVE SMOOTH",
"146 139 OFFCURVE",
"179 126 OFFCURVE",
"217 126 CURVE SMOOTH",
"254 126 OFFCURVE",
"287 139 OFFCURVE",
"314 166 CURVE",
"314 166 LINE"
);
},
{
closed = 1;
nodes = (
"462 -32 OFFCURVE",
"452 -28 OFFCURVE",
"445 -20 CURVE SMOOTH",
"339 85 LINE",
"303 59 OFFCURVE",
"262 47 OFFCURVE",
"217 47 CURVE SMOOTH",
"187 47 OFFCURVE",
"159 52 OFFCURVE",
"132 64 CURVE SMOOTH",
"79 87 OFFCURVE",
"40 126 OFFCURVE",
"17 179 CURVE SMOOTH",
"6 206 OFFCURVE",
"0 234 OFFCURVE",
"0 263 CURVE SMOOTH",
"0 293 OFFCURVE",
"6 321 OFFCURVE",
"17 347 CURVE SMOOTH",
"28 374 OFFCURVE",
"44 397 OFFCURVE",
"63 417 CURVE SMOOTH",
"82 436 OFFCURVE",
"106 451 OFFCURVE",
"132 463 CURVE SMOOTH",
"159 474 OFFCURVE",
"187 480 OFFCURVE",
"217 480 CURVE SMOOTH",
"246 480 OFFCURVE",
"274 474 OFFCURVE",
"301 463 CURVE SMOOTH",
"327 451 OFFCURVE",
"350 436 OFFCURVE",
"370 417 CURVE SMOOTH",
"389 397 OFFCURVE",
"405 374 OFFCURVE",
"416 347 CURVE SMOOTH",
"427 321 OFFCURVE",
"433 293 OFFCURVE",
"433 263 CURVE SMOOTH",
"433 218 OFFCURVE",
"421 177 OFFCURVE",
"395 141 CURVE",
"501 35 LINE SMOOTH",
"508 27 OFFCURVE",
"512 18 OFFCURVE",
"512 7 CURVE SMOOTH",
"512 -3 OFFCURVE",
"508 -13 OFFCURVE",
"500 -20 CURVE SMOOTH",
"493 -28 OFFCURVE",
"483 -32 OFFCURVE",
"473 -32 CURVE SMOOTH"
);
},
{
closed = 1;
nodes = (
"224 352 LINE SMOOTH",
"228 352 OFFCURVE",
"231 348 OFFCURVE",
"231 343 CURVE SMOOTH",
"231 182 LINE SMOOTH",
"231 177 OFFCURVE",
"228 173 OFFCURVE",
"224 173 CURVE SMOOTH",
"211 173 LINE SMOOTH",
"208 173 OFFCURVE",
"205 177 OFFCURVE",
"205 182 CURVE SMOOTH",
"205 343 LINE SMOOTH",
"205 348 OFFCURVE",
"208 352 OFFCURVE",
"211 352 CURVE",
"211 352 LINE"
);
},
{
closed = 1;
nodes = (
"128 269 LINE SMOOTH",
"128 272 OFFCURVE",
"132 275 OFFCURVE",
"137 275 CURVE SMOOTH",
"298 275 LINE SMOOTH",
"303 275 OFFCURVE",
"307 272 OFFCURVE",
"307 269 CURVE SMOOTH",
"307 256 LINE SMOOTH",
"307 253 OFFCURVE",
"303 250 OFFCURVE",
"298 250 CURVE SMOOTH",
"137 250 LINE SMOOTH",
"132 250 OFFCURVE",
"128 253 OFFCURVE",
"128 256 CURVE",
"128 256 LINE"
);
}
);
width = 512;
}
);
unicode = F017;
},
{
glyphname = F018;
lastChange = "2013-10-18 07:53:08 +0800";
layers = (
{
layerId = "D92E8CCE-7036-4CD1-A654-23E4C8CE3D75";
name = Regular;
paths = (
{
closed = 1;
nodes = (
"341 193 OFFCURVE",
"354 225 OFFCURVE",
"354 263 CURVE SMOOTH",
"354 301 OFFCURVE",
"341 334 OFFCURVE",
"314 360 CURVE SMOOTH",
"287 388 OFFCURVE",
"254 401 OFFCURVE",
"216 401 CURVE SMOOTH",
"179 401 OFFCURVE",
"146 388 OFFCURVE",
"119 360 CURVE SMOOTH",
"92 334 OFFCURVE",
"79 301 OFFCURVE",
"79 263 CURVE SMOOTH",
"79 225 OFFCURVE",
"92 193 OFFCURVE",
"119 166 CURVE SMOOTH",
"146 139 OFFCURVE",
"179 125 OFFCURVE",
"216 125 CURVE SMOOTH",
"254 125 OFFCURVE",
"287 139 OFFCURVE",
"314 166 CURVE",
"314 166 LINE"
);
},
{
closed = 1;
nodes = (
"461 -32 OFFCURVE",
"452 -28 OFFCURVE",
"445 -20 CURVE SMOOTH",
"339 85 LINE",
"303 59 OFFCURVE",
"262 47 OFFCURVE",
"216 47 CURVE SMOOTH",
"187 47 OFFCURVE",
"159 52 OFFCURVE",
"132 64 CURVE SMOOTH",
"79 87 OFFCURVE",
"40 126 OFFCURVE",
"17 179 CURVE SMOOTH",
"5 206 OFFCURVE",
"0 234 OFFCURVE",
"0 263 CURVE SMOOTH",
"0 292 OFFCURVE",
"5 320 OFFCURVE",
"17 347 CURVE SMOOTH",
"28 374 OFFCURVE",
"43 397 OFFCURVE",
"63 416 CURVE SMOOTH",
"82 436 OFFCURVE",
"105 451 OFFCURVE",
"132 463 CURVE SMOOTH",
"159 474 OFFCURVE",
"187 480 OFFCURVE",
"216 480 CURVE SMOOTH",
"246 480 OFFCURVE",
"274 474 OFFCURVE",
"300 463 CURVE SMOOTH",
"327 451 OFFCURVE",
"350 436 OFFCURVE",
"370 416 CURVE SMOOTH",
"389 397 OFFCURVE",
"404 374 OFFCURVE",
"416 347 CURVE SMOOTH",
"427 320 OFFCURVE",
"433 292 OFFCURVE",
"433 263 CURVE SMOOTH",
"433 218 OFFCURVE",
"420 177 OFFCURVE",
"395 140 CURVE",
"500 35 LINE SMOOTH",
"508 27 OFFCURVE",
"512 18 OFFCURVE",
"512 7 CURVE SMOOTH",
"512 -4 OFFCURVE",
"508 -13 OFFCURVE",
"500 -20 CURVE SMOOTH",
"492 -28 OFFCURVE",
"483 -32 OFFCURVE",
"472 -32 CURVE SMOOTH"
);
},
{
closed = 1;
nodes = (
"128 269 LINE SMOOTH",
"128 272 OFFCURVE",
"132 275 OFFCURVE",
"137 275 CURVE SMOOTH",
"298 275 LINE SMOOTH",
"303 275 OFFCURVE",
"307 272 OFFCURVE",
"307 269 CURVE SMOOTH",
"307 256 LINE SMOOTH",
"307 253 OFFCURVE",
"303 250 OFFCURVE",
"298 250 CURVE SMOOTH",
"137 250 LINE SMOOTH",
"132 250 OFFCURVE",
"128 253 OFFCURVE",
"128 256 CURVE",
"128 256 LINE"
);
}
);
width = 512;
}
);
unicode = F018;
},
{
glyphname = F019;
lastChange = "2013-10-21 01:41:56 +0800";
layers = (
{
layerId = "D92E8CCE-7036-4CD1-A654-23E4C8CE3D75";
name = Regular;
paths = (
{
closed = 1;
nodes = (
"334 115 OFFCURVE",
"312 136 OFFCURVE",
"312 179 CURVE SMOOTH",
"312 206 OFFCURVE",
"333 197 OFFCURVE",
"342 245 CURVE SMOOTH",
"346 265 OFFCURVE",
"364 246 OFFCURVE",
"367 291 CURVE",
"367 309 OFFCURVE",
"357 314 OFFCURVE",
"357 314 CURVE SMOOTH",
"357 314 OFFCURVE",
"362 341 OFFCURVE",
"364 362 CURVE SMOOTH",
"367 387 OFFCURVE",
"349 454 OFFCURVE",
"256 454 CURVE SMOOTH",
"163 454 OFFCURVE",
"145 387 OFFCURVE",
"148 362 CURVE SMOOTH",
"150 341 OFFCURVE",
"155 314 OFFCURVE",
"155 314 CURVE SMOOTH",
"155 314 OFFCURVE",
"145 309 OFFCURVE",
"145 291 CURVE",
"148 246 OFFCURVE",
"166 265 OFFCURVE",
"170 245 CURVE SMOOTH",
"179 197 OFFCURVE",
"200 206 OFFCURVE",
"200 179 CURVE SMOOTH",
"200 136 OFFCURVE",
"178 115 OFFCURVE",
"111 91 CURVE SMOOTH",
"44 66 OFFCURVE",
"0 42 OFFCURVE",
"0 25 CURVE SMOOTH",
"0 8 OFFCURVE",
"0 -32 OFFCURVE",
"0 -32 CURVE",
"256 -32 LINE",
"512 -32 LINE",
"512 -32 OFFCURVE",
"512 8 OFFCURVE",
"512 25 CURVE SMOOTH",
"512 42 OFFCURVE",
"468 66 OFFCURVE",
"401 91 CURVE SMOOTH"
);
}
);
width = 512;
}
);
unicode = F019;
},
{
glyphname = F01A;
lastChange = "2013-10-21 01:42:26 +0800";
layers = (
{
layerId = "D92E8CCE-7036-4CD1-A654-23E4C8CE3D75";
name = Regular;
paths = (
{
closed = 1;
nodes = (
"253 123 OFFCURVE",
"233 143 OFFCURVE",
"233 184 CURVE SMOOTH",
"233 209 OFFCURVE",
"252 201 OFFCURVE",
"261 247 CURVE SMOOTH",
"264 266 OFFCURVE",
"281 247 OFFCURVE",
"285 290 CURVE",
"285 307 OFFCURVE",
"275 312 OFFCURVE",
"275 312 CURVE SMOOTH",
"275 312 OFFCURVE",
"280 337 OFFCURVE",
"282 357 CURVE SMOOTH",
"284 381 OFFCURVE",
"266 460 OFFCURVE",
"177 460 CURVE SMOOTH",
"89 460 OFFCURVE",
"74 381 OFFCURVE",
"76 357 CURVE SMOOTH",
"78 337 OFFCURVE",
"83 312 OFFCURVE",
"83 312 CURVE SMOOTH",
"83 312 OFFCURVE",
"74 307 OFFCURVE",
"74 290 CURVE",
"77 247 OFFCURVE",
"94 266 OFFCURVE",
"98 247 CURVE SMOOTH",
"106 201 OFFCURVE",
"126 209 OFFCURVE",
"126 184 CURVE SMOOTH",
"126 143 OFFCURVE",
"105 123 OFFCURVE",
"42 100 CURVE SMOOTH",
"34 97 OFFCURVE",
"16 93 OFFCURVE",
"0 86 CURVE",
"0 -32 LINE",
"414 -32 LINE",
"414 -32 OFFCURVE",
"414 31 OFFCURVE",
"414 47 CURVE SMOOTH",
"414 63 OFFCURVE",
"381 77 OFFCURVE",
"317 100 CURVE SMOOTH"
);
},
{
closed = 1;
nodes = (
"433 322 LINE",
"374 322 LINE",
"374 244 LINE",
"295 244 LINE",
"295 184 LINE",
"374 184 LINE",
"374 106 LINE",
"433 106 LINE",
"433 184 LINE",
"512 184 LINE",
"512 244 LINE",
"433 244 LINE"
);
}
);
width = 512;
}
);
unicode = F01A;
},
{
glyphname = F01B;
lastChange = "2013-10-21 02:04:33 +0800";
layers = (
{
layerId = "D92E8CCE-7036-4CD1-A654-23E4C8CE3D75";
name = Regular;
paths = (
{
closed = 1;
nodes = (
"512 -32 OFFCURVE",
"511 65 OFFCURVE",
"505 75 CURVE SMOOTH",
"496 90 OFFCURVE",
"476 100 OFFCURVE",
"438 116 CURVE SMOOTH",
"400 132 OFFCURVE",
"388 145 OFFCURVE",
"388 174 CURVE SMOOTH",
"388 191 OFFCURVE",
"399 185 OFFCURVE",
"404 217 CURVE SMOOTH",
"406 230 OFFCURVE",
"417 217 OFFCURVE",
"419 247 CURVE",
"419 259 OFFCURVE",
"413 262 OFFCURVE",
"413 262 CURVE SMOOTH",
"413 262 OFFCURVE",
"416 279 OFFCURVE",
"417 293 CURVE SMOOTH",
"418 310 OFFCURVE",
"408 353 OFFCURVE",
"356 353 CURVE SMOOTH",
"303 353 OFFCURVE",
"293 310 OFFCURVE",
"294 293 CURVE SMOOTH",
"296 279 OFFCURVE",
"298 262 OFFCURVE",
"298 262 CURVE SMOOTH",
"298 262 OFFCURVE",
"293 259 OFFCURVE",
"293 247 CURVE",
"295 217 OFFCURVE",
"305 230 OFFCURVE",
"307 217 CURVE SMOOTH",
"312 185 OFFCURVE",
"324 191 OFFCURVE",
"324 174 CURVE SMOOTH",
"324 154 OFFCURVE",
"318 142 OFFCURVE",
"303 131 CURVE",
"386 89 OFFCURVE",
"397 81 OFFCURVE",
"397 44 CURVE SMOOTH",
"397 -32 LINE",
"512 -32 LINE"
);
},
{
closed = 1;
nodes = (
"211 123 OFFCURVE",
"195 140 OFFCURVE",
"195 179 CURVE SMOOTH",
"195 202 OFFCURVE",
"210 194 OFFCURVE",
"217 236 CURVE SMOOTH",
"220 254 OFFCURVE",
"234 236 OFFCURVE",
"236 276 CURVE",
"236 292 OFFCURVE",
"229 296 OFFCURVE",
"229 296 CURVE SMOOTH",
"229 296 OFFCURVE",
"233 320 OFFCURVE",
"234 338 CURVE SMOOTH",
"236 360 OFFCURVE",
"223 418 OFFCURVE",
"152 418 CURVE SMOOTH",
"82 418 OFFCURVE",
"69 360 OFFCURVE",
"71 338 CURVE SMOOTH",
"72 320 OFFCURVE",
"76 296 OFFCURVE",
"76 296 CURVE SMOOTH",
"76 296 OFFCURVE",
"69 292 OFFCURVE",
"69 276 CURVE",
"71 236 OFFCURVE",
"85 254 OFFCURVE",
"88 236 CURVE SMOOTH",
"95 194 OFFCURVE",
"110 202 OFFCURVE",
"110 179 CURVE SMOOTH",
"110 140 OFFCURVE",
"94 123 OFFCURVE",
"43 101 CURVE SMOOTH",
"28 95 OFFCURVE",
"0 85 OFFCURVE",
"0 61 CURVE SMOOTH",
"0 -32 LINE",
"356 -32 LINE",
"356 -32 OFFCURVE",
"356 23 OFFCURVE",
"356 38 CURVE SMOOTH",
"356 60 OFFCURVE",
"313 80 OFFCURVE",
"262 101 CURVE SMOOTH"
);
}
);
width = 512;
}
);
unicode = F01B;
},
{
glyphname = F01C;
lastChange = "2013-10-18 07:54:07 +0800";
layers = (
{
layerId = "D92E8CCE-7036-4CD1-A654-23E4C8CE3D75";
name = Regular;
paths = (
{
closed = 1;
nodes = (
"114 -36 OFFCURVE",
"81 -21 OFFCURVE",
"58 3 CURVE SMOOTH",
"12 47 OFFCURVE",
"0 125 OFFCURVE",
"64 189 CURVE SMOOTH",
"101 226 OFFCURVE",
"250 374 OFFCURVE",
"324 449 CURVE SMOOTH",
"349 474 OFFCURVE",
"383 484 OFFCURVE",
"415 476 CURVE SMOOTH",
"447 468 OFFCURVE",
"472 441 OFFCURVE",
"482 410 CURVE SMOOTH",
"490 378 OFFCURVE",
"479 345 OFFCURVE",
"453 318 CURVE SMOOTH",
"205 71 LINE SMOOTH",
"191 56 OFFCURVE",
"175 48 OFFCURVE",
"158 46 CURVE SMOOTH",
"142 45 OFFCURVE",
"127 50 OFFCURVE",
"117 60 CURVE SMOOTH",
"98 80 OFFCURVE",
"94 116 OFFCURVE",
"127 148 CURVE SMOOTH",
"302 323 LINE SMOOTH",
"309 330 OFFCURVE",
"320 330 OFFCURVE",
"327 323 CURVE SMOOTH",
"334 315 OFFCURVE",
"334 303 OFFCURVE",
"327 296 CURVE SMOOTH",
"152 122 LINE SMOOTH",
"138 107 OFFCURVE",
"136 93 OFFCURVE",
"143 87 CURVE SMOOTH",
"145 84 OFFCURVE",
"150 83 OFFCURVE",
"154 83 CURVE SMOOTH",
"163 84 OFFCURVE",
"171 89 OFFCURVE",
"179 97 CURVE SMOOTH",
"428 345 LINE SMOOTH",
"445 361 OFFCURVE",
"451 381 OFFCURVE",
"446 401 CURVE SMOOTH",
"441 420 OFFCURVE",
"425 435 OFFCURVE",
"406 440 CURVE SMOOTH",
"387 445 OFFCURVE",
"367 439 OFFCURVE",
"349 422 CURVE SMOOTH",
"275 348 OFFCURVE",
"127 200 OFFCURVE",
"89 163 CURVE SMOOTH",
"42 115 OFFCURVE",
"53 59 OFFCURVE",
"84 28 CURVE SMOOTH",
"116 -4 OFFCURVE",
"171 -15 OFFCURVE",
"219 34 CURVE SMOOTH",
"479 293 LINE SMOOTH",
"487 300 OFFCURVE",
"498 300 OFFCURVE",
"505 293 CURVE SMOOTH",
"512 286 OFFCURVE",
"512 274 OFFCURVE",
"505 267 CURVE SMOOTH",
"246 8 LINE SMOOTH",
"215 -23 OFFCURVE",
"181 -36 OFFCURVE",
"148 -36 CURVE SMOOTH"
);
}
);
width = 512;
}
);
unicode = F01C;
},
{
glyphname = F01D;
lastChange = "2013-10-25 06:33:01 +0800";
layers = (
{
layerId = "D92E8CCE-7036-4CD1-A654-23E4C8CE3D75";
name = Regular;
paths = (
{
closed = 1;
nodes = (
"512 255 LINE",
"430 296 LINE",
"430 296 OFFCURVE",
"430 296 OFFCURVE",
"430 296 CURVE",
"471 378 LINE",
"409 439 LINE",
"327 398 LINE",
"327 398 OFFCURVE",
"327 398 OFFCURVE",
"327 398 CURVE",
"286 480 LINE",
"225 480 LINE",
"184 398 LINE",
"184 398 OFFCURVE",
"184 398 OFFCURVE",
"184 398 CURVE",
"102 439 LINE",
"41 378 LINE",
"82 296 LINE",
"81 296 OFFCURVE",
"81 296 OFFCURVE",
"81 296 CURVE",
"0 255 LINE",
"0 193 LINE",
"81 152 LINE",
"81 152 OFFCURVE",
"81 152 OFFCURVE",
"81 152 CURVE",
"41 70 LINE",
"102 9 LINE",
"184 50 LINE",
"184 50 OFFCURVE",
"184 50 OFFCURVE",
"184 50 CURVE",
"225 -32 LINE",
"286 -32 LINE",
"327 50 LINE",
"327 50 OFFCURVE",
"327 50 OFFCURVE",
"327 50 CURVE",
"409 9 LINE",
"471 70 LINE",
"430 152 LINE",
"430 152 OFFCURVE",
"430 152 OFFCURVE",
"430 152 CURVE",
"512 193 LINE"
);
},
{
closed = 1;
nodes = (
"216 152 OFFCURVE",
"184 184 OFFCURVE",
"184 224 CURVE SMOOTH",
"184 264 OFFCURVE",
"216 296 OFFCURVE",
"256 296 CURVE SMOOTH",
"295 296 OFFCURVE",
"327 264 OFFCURVE",
"327 224 CURVE SMOOTH",
"327 184 OFFCURVE",
"295 152 OFFCURVE",
"256 152 CURVE SMOOTH"
);
}
);
width = 512;
}
);
unicode = F01D;
},
{
glyphname = F01E;
lastChange = "2013-10-18 08:03:55 +0800";
layers = (
{
layerId = "D92E8CCE-7036-4CD1-A654-23E4C8CE3D75";
name = Regular;
paths = (
{
closed = 1;
nodes = (
"40 480 LINE SMOOTH",
"18 480 OFFCURVE",
"0 461 OFFCURVE",
"0 439 CURVE SMOOTH",
"0 77 LINE SMOOTH",
"0 55 OFFCURVE",
"15 41 OFFCURVE",
"37 41 CURVE SMOOTH",
"476 41 LINE SMOOTH",
"497 41 OFFCURVE",
"512 55 OFFCURVE",
"512 77 CURVE SMOOTH",
"512 439 LINE SMOOTH",
"512 461 OFFCURVE",
"495 480 OFFCURVE",
"473 480 CURVE SMOOTH"
);
},
{
closed = 1;
nodes = (
"74 114 LINE",
"74 406 LINE",
"438 406 LINE",
"438 114 LINE"
);
},
{
closed = 1;
nodes = (
"158 5 OFFCURVE",
"73 7 OFFCURVE",
"73 -32 CURVE",
"439 -32 LINE",
"439 7 OFFCURVE",
"354 5 OFFCURVE",
"256 5 CURVE SMOOTH"
);
},
{
closed = 1;
nodes = (
"329 41 LINE",
"329 4 LINE",
"183 4 LINE",
"183 41 LINE"
);
}
);
width = 512;
}
);
unicode = F01E;
},
{
glyphname = F01F;
lastChange = "2013-10-18 08:11:16 +0800";
layers = (
{
layerId = "D92E8CCE-7036-4CD1-A654-23E4C8CE3D75";
name = Regular;
paths = (
{
closed = 1;
nodes = (
"197 463 LINE SMOOTH",
"166 480 OFFCURVE",
"104 447 OFFCURVE",
"86 419 CURVE SMOOTH",
"78 406 OFFCURVE",
"79 397 OFFCURVE",
"79 392 CURVE SMOOTH",
"81 121 LINE SMOOTH",
"82 115 OFFCURVE",
"89 107 OFFCURVE",
"95 104 CURVE SMOOTH",
"108 96 OFFCURVE",
"300 -26 OFFCURVE",
"305 -30 CURVE SMOOTH",
"308 -32 OFFCURVE",
"312 -32 OFFCURVE",
"315 -32 CURVE SMOOTH",
"318 -32 OFFCURVE",
"321 -32 OFFCURVE",
"324 -30 CURVE SMOOTH",
"329 -28 OFFCURVE",
"328 -3 OFFCURVE",
"328 3 CURVE SMOOTH",
"328 253 LINE SMOOTH",
"328 274 OFFCURVE",
"319 285 OFFCURVE",
"309 291 CURVE SMOOTH",
"263 322 OFFCURVE",
"116 401 OFFCURVE",
"116 401 CURVE",
"118 405 OFFCURVE",
"128 415 OFFCURVE",
"145 424 CURVE SMOOTH",
"163 434 OFFCURVE",
"176 430 OFFCURVE",
"179 429 CURVE",
"179 429 OFFCURVE",
"379 320 OFFCURVE",
"385 317 CURVE SMOOTH",
"391 314 OFFCURVE",
"399 305 OFFCURVE",
"399 289 CURVE SMOOTH",
"399 283 OFFCURVE",
"399 39 OFFCURVE",
"399 39 CURVE",
"399 26 OFFCURVE",
"405 19 OFFCURVE",
"414 19 CURVE SMOOTH",
"424 19 OFFCURVE",
"435 29 OFFCURVE",
"435 38 CURVE SMOOTH",
"435 329 LINE SMOOTH",
"435 335 OFFCURVE",
"431 340 OFFCURVE",
"426 343 CURVE SMOOTH"
);
}
);
width = 512;
}
);
unicode = F01F;
},
{
glyphname = F020;
lastChange = "2013-10-18 08:11:25 +0800";
layers = (
{
layerId = "D92E8CCE-7036-4CD1-A654-23E4C8CE3D75";
name = Regular;
paths = (
{
closed = 1;
nodes = (
"102 20 LINE SMOOTH",
"52 20 OFFCURVE",
"0 56 OFFCURVE",
"0 123 CURVE SMOOTH",
"0 200 LINE",
"149 429 LINE",
"363 429 LINE",
"512 200 LINE",
"512 123 LINE SMOOTH",
"512 56 OFFCURVE",
"460 20 OFFCURVE",
"410 20 CURVE SMOOTH"
);
},
{
closed = 1;
nodes = (
"179 379 LINE",
"77 200 LINE",
"179 200 LINE",
"179 175 LINE SMOOTH",
"179 153 OFFCURVE",
"188 148 OFFCURVE",
"205 148 CURVE SMOOTH",
"307 148 LINE SMOOTH",
"324 148 OFFCURVE",
"333 153 OFFCURVE",
"333 175 CURVE SMOOTH",
"333 200 LINE",
"435 200 LINE",
"333 379 LINE"
);
}
);
width = 512;
}
);
unicode = F020;
},
{
glyphname = F021;
lastChange = "2013-10-25 06:35:24 +0800";
layers = (
{
layerId = "D92E8CCE-7036-4CD1-A654-23E4C8CE3D75";
name = Regular;
paths = (
{
closed = 1;
nodes = (
"433 480 LINE",
"433 402 LINE",
"335 402 LINE",
"335 480 LINE",
"177 480 LINE",
"177 402 LINE",
"79 402 LINE",
"79 480 LINE",
"39 480 LINE SMOOTH",
"10 480 OFFCURVE",
"0 460 OFFCURVE",
"0 430 CURVE SMOOTH",
"0 23 LINE SMOOTH",
"0 -7 OFFCURVE",
"25 -32 OFFCURVE",
"55 -32 CURVE SMOOTH",
"457 -32 LINE SMOOTH",
"487 -32 OFFCURVE",
"512 -7 OFFCURVE",
"512 23 CURVE SMOOTH",
"512 430 LINE SMOOTH",
"512 460 OFFCURVE",
"502 480 OFFCURVE",
"473 480 CURVE SMOOTH"
);
},
{
closed = 1;
nodes = (
"59 27 LINE",
"59 323 LINE",
"453 323 LINE",
"453 27 LINE"
);
},
{
closed = 1;
nodes = (
"99 480 LINE",
"99 421 LINE",
"158 421 LINE",
"158 480 LINE"
);
},
{
closed = 1;
nodes = (
"354 480 LINE",
"354 421 LINE",
"413 421 LINE",
"413 480 LINE"
);
},
{
closed = 1;
nodes = (
"217 244 LINE",
"217 185 LINE",
"158 185 LINE",
"158 244 LINE"
);
},
{
closed = 1;
nodes = (
"295 244 LINE",
"295 185 LINE",
"237 185 LINE",
"237 244 LINE"
);
},
{
closed = 1;
nodes = (
"374 244 LINE",
"374 185 LINE",
"315 185 LINE",
"315 244 LINE"
);
},
{
closed = 1;
nodes = (
"374 165 LINE",
"374 106 LINE",
"315 106 LINE",
"315 165 LINE"
);
},
{
closed = 1;
nodes = (
"295 165 LINE",
"295 106 LINE",
"237 106 LINE",
"237 165 LINE"
);
},
{
closed = 1;
nodes = (
"217 165 LINE",
"217 106 LINE",
"158 106 LINE",
"158 165 LINE"
);
}
);
width = 512;
}
);
unicode = F021;
},
{
glyphname = F022;
lastChange = "2013-10-21 02:05:16 +0800";
layers = (
{
layerId = "D92E8CCE-7036-4CD1-A654-23E4C8CE3D75";
name = Regular;
paths = (
{
closed = 1;
nodes = (
"486 103 LINE SMOOTH",
"501 103 OFFCURVE",
"512 91 OFFCURVE",
"512 77 CURVE SMOOTH",
"512 26 LINE SMOOTH",
"512 12 OFFCURVE",
"501 0 OFFCURVE",
"486 0 CURVE SMOOTH",
"154 0 LINE SMOOTH",
"139 0 OFFCURVE",
"128 12 OFFCURVE",
"128 26 CURVE SMOOTH",
"128 77 LINE SMOOTH",
"128 91 OFFCURVE",
"139 103 OFFCURVE",
"154 103 CURVE SMOOTH"
);
},
{
closed = 1;
nodes = (
"51 103 LINE SMOOTH",
"65 103 OFFCURVE",
"77 91 OFFCURVE",
"77 77 CURVE SMOOTH",
"77 26 LINE SMOOTH",
"77 12 OFFCURVE",
"65 0 OFFCURVE",
"51 0 CURVE SMOOTH",
"26 0 LINE SMOOTH",
"11 0 OFFCURVE",
"0 12 OFFCURVE",
"0 26 CURVE SMOOTH",
"0 77 LINE SMOOTH",
"0 91 OFFCURVE",
"11 103 OFFCURVE",
"26 103 CURVE SMOOTH"
);
},
{
closed = 1;
nodes = (
"486 256 LINE SMOOTH",
"501 256 OFFCURVE",
"512 245 OFFCURVE",
"512 231 CURVE SMOOTH",
"512 179 LINE SMOOTH",
"512 165 OFFCURVE",
"501 154 OFFCURVE",
"486 154 CURVE SMOOTH",
"154 154 LINE SMOOTH",
"139 154 OFFCURVE",
"128 165 OFFCURVE",
"128 179 CURVE SMOOTH",
"128 231 LINE SMOOTH",
"128 245 OFFCURVE",
"139 256 OFFCURVE",
"154 256 CURVE SMOOTH"
);
},
{
closed = 1;
nodes = (
"51 256 LINE SMOOTH",
"65 256 OFFCURVE",
"77 245 OFFCURVE",
"77 231 CURVE SMOOTH",
"77 179 LINE SMOOTH",
"77 165 OFFCURVE",
"65 154 OFFCURVE",
"51 154 CURVE SMOOTH",
"26 154 LINE SMOOTH",
"11 154 OFFCURVE",
"0 165 OFFCURVE",
"0 179 CURVE SMOOTH",
"0 231 LINE SMOOTH",
"0 245 OFFCURVE",
"11 256 OFFCURVE",
"26 256 CURVE SMOOTH"
);
},
{
closed = 1;
nodes = (
"486 410 LINE SMOOTH",
"501 410 OFFCURVE",
"512 398 OFFCURVE",
"512 384 CURVE SMOOTH",
"512 333 LINE SMOOTH",
"512 319 OFFCURVE",
"501 307 OFFCURVE",
"486 307 CURVE SMOOTH",
"154 307 LINE SMOOTH",
"139 307 OFFCURVE",
"128 319 OFFCURVE",
"128 333 CURVE SMOOTH",
"128 384 LINE SMOOTH",
"128 398 OFFCURVE",
"139 410 OFFCURVE",
"154 410 CURVE SMOOTH"
);
},
{
closed = 1;
nodes = (
"51 410 LINE SMOOTH",
"65 410 OFFCURVE",
"77 398 OFFCURVE",
"77 384 CURVE SMOOTH",
"77 333 LINE SMOOTH",
"77 319 OFFCURVE",
"65 307 OFFCURVE",
"51 307 CURVE SMOOTH",
"26 307 LINE SMOOTH",
"11 307 OFFCURVE",
"0 319 OFFCURVE",
"0 333 CURVE SMOOTH",
"0 384 LINE SMOOTH",
"0 398 OFFCURVE",
"11 410 OFFCURVE",
"26 410 CURVE SMOOTH"
);
}
);
width = 512;
}
);
unicode = F022;
},
{
glyphname = F023;
lastChange = "2013-10-18 09:45:24 +0800";
layers = (
{
layerId = "D92E8CCE-7036-4CD1-A654-23E4C8CE3D75";
name = Regular;
paths = (
{
closed = 1;
nodes = (
"16 416 LINE SMOOTH",
"11 416 OFFCURVE",
"8 414 OFFCURVE",
"5 411 CURVE SMOOTH",
"2 408 OFFCURVE",
"0 404 OFFCURVE",
"0 399 CURVE SMOOTH",
"0 336 LINE SMOOTH",
"0 331 OFFCURVE",
"2 328 OFFCURVE",
"5 325 CURVE SMOOTH",
"8 322 OFFCURVE",
"11 320 OFFCURVE",
"16 320 CURVE SMOOTH",
"496 320 LINE SMOOTH",
"501 320 OFFCURVE",
"505 322 OFFCURVE",
"508 325 CURVE SMOOTH",
"511 328 OFFCURVE",
"512 331 OFFCURVE",
"512 336 CURVE SMOOTH",
"512 399 LINE SMOOTH",
"512 404 OFFCURVE",
"511 408 OFFCURVE",
"508 411 CURVE SMOOTH",
"505 414 OFFCURVE",
"501 416 OFFCURVE",
"496 416 CURVE SMOOTH"
);
},
{
closed = 1;
nodes = (
"16 256 LINE SMOOTH",
"11 256 OFFCURVE",
"8 254 OFFCURVE",
"5 251 CURVE SMOOTH",
"2 248 OFFCURVE",
"0 244 OFFCURVE",
"0 239 CURVE SMOOTH",
"0 176 LINE SMOOTH",
"0 171 OFFCURVE",
"2 168 OFFCURVE",
"5 165 CURVE SMOOTH",
"8 162 OFFCURVE",
"11 160 OFFCURVE",
"16 160 CURVE SMOOTH",
"496 160 LINE SMOOTH",
"501 160 OFFCURVE",
"505 162 OFFCURVE",
"508 165 CURVE SMOOTH",
"511 168 OFFCURVE",
"512 171 OFFCURVE",
"512 176 CURVE SMOOTH",
"512 239 LINE SMOOTH",
"512 244 OFFCURVE",
"511 248 OFFCURVE",
"508 251 CURVE SMOOTH",
"505 254 OFFCURVE",
"501 256 OFFCURVE",
"496 256 CURVE SMOOTH"
);
},
{
closed = 1;
nodes = (
"16 96 LINE SMOOTH",
"11 96 OFFCURVE",
"8 94 OFFCURVE",
"5 91 CURVE SMOOTH",
"2 88 OFFCURVE",
"0 84 OFFCURVE",
"0 79 CURVE SMOOTH",
"0 16 LINE SMOOTH",
"0 12 OFFCURVE",
"2 8 OFFCURVE",
"5 5 CURVE SMOOTH",
"8 2 OFFCURVE",
"11 0 OFFCURVE",
"16 0 CURVE SMOOTH",
"496 0 LINE SMOOTH",
"501 0 OFFCURVE",
"505 2 OFFCURVE",
"508 5 CURVE SMOOTH",
"511 8 OFFCURVE",
"512 11 OFFCURVE",
"512 16 CURVE SMOOTH",
"512 79 LINE SMOOTH",
"512 84 OFFCURVE",
"511 88 OFFCURVE",
"508 91 CURVE SMOOTH",
"505 94 OFFCURVE",
"501 96 OFFCURVE",
"496 96 CURVE SMOOTH"
);
}
);
width = 512;
}
);
unicode = F023;
},
{
glyphname = F024;
lastChange = "2013-10-18 08:11:56 +0800";
layers = (
{
layerId = "D92E8CCE-7036-4CD1-A654-23E4C8CE3D75";
name = Regular;
paths = (
{
closed = 1;
nodes = (
"60 480 LINE SMOOTH",
"13 480 OFFCURVE",
"0 467 OFFCURVE",
"0 420 CURVE SMOOTH",
"0 326 LINE SMOOTH",
"0 279 OFFCURVE",
"13 267 OFFCURVE",
"60 267 CURVE SMOOTH",
"154 267 LINE SMOOTH",
"201 267 OFFCURVE",
"213 279 OFFCURVE",
"213 326 CURVE SMOOTH",
"213 420 LINE SMOOTH",
"213 467 OFFCURVE",
"201 480 OFFCURVE",
"154 480 CURVE SMOOTH"
);
},
{
closed = 1;
nodes = (
"358 480 LINE SMOOTH",
"311 480 OFFCURVE",
"299 467 OFFCURVE",
"299 420 CURVE SMOOTH",
"299 326 LINE SMOOTH",
"299 279 OFFCURVE",
"311 267 OFFCURVE",
"358 267 CURVE SMOOTH",
"452 267 LINE SMOOTH",
"499 267 OFFCURVE",
"512 279 OFFCURVE",
"512 326 CURVE SMOOTH",
"512 420 LINE SMOOTH",
"512 467 OFFCURVE",
"499 480 OFFCURVE",
"452 480 CURVE SMOOTH"
);
},
{
closed = 1;
nodes = (
"60 181 LINE SMOOTH",
"13 181 OFFCURVE",
"0 169 OFFCURVE",
"0 122 CURVE SMOOTH",
"0 28 LINE SMOOTH",
"0 -19 OFFCURVE",
"13 -32 OFFCURVE",
"60 -32 CURVE SMOOTH",
"154 -32 LINE SMOOTH",
"201 -32 OFFCURVE",
"213 -19 OFFCURVE",
"213 28 CURVE SMOOTH",
"213 122 LINE SMOOTH",
"213 169 OFFCURVE",
"201 181 OFFCURVE",
"154 181 CURVE SMOOTH"
);
},
{
closed = 1;
nodes = (
"358 181 LINE SMOOTH",
"311 181 OFFCURVE",
"299 169 OFFCURVE",
"299 122 CURVE SMOOTH",
"299 28 LINE SMOOTH",
"299 -19 OFFCURVE",
"311 -32 OFFCURVE",
"358 -32 CURVE SMOOTH",
"452 -32 LINE SMOOTH",
"499 -32 OFFCURVE",
"512 -19 OFFCURVE",
"512 28 CURVE SMOOTH",
"512 122 LINE SMOOTH",
"512 169 OFFCURVE",
"499 181 OFFCURVE",
"452 181 CURVE SMOOTH"
);
}
);
width = 512;
}
);
unicode = F024;
},
{
glyphname = F025;
lastChange = "2013-10-18 08:12:03 +0800";
layers = (
{
layerId = "D92E8CCE-7036-4CD1-A654-23E4C8CE3D75";
name = Regular;
paths = (
{
closed = 1;
nodes = (
"13 480 OFFCURVE",
"13 449 OFFCURVE",
"13 426 CURVE",
"87 340 OFFCURVE",
"202 211 OFFCURVE",
"202 211 CURVE",
"202 -32 LINE",
"310 22 LINE",
"310 211 LINE",
"310 211 OFFCURVE",
"435 339 OFFCURVE",
"499 425 CURVE",
"499 448 OFFCURVE",
"499 480 OFFCURVE",
"499 480 CURVE SMOOTH",
"13 480 LINE SMOOTH"
);
}
);
width = 512;
}
);
unicode = F025;
},
{
glyphname = F026;
lastChange = "2013-10-18 08:12:13 +0800";
layers = (
{
layerId = "D92E8CCE-7036-4CD1-A654-23E4C8CE3D75";
name = Regular;
paths = (
{
closed = 1;
nodes = (
"473 396 LINE SMOOTH",
"464 403 OFFCURVE",
"452 401 OFFCURVE",
"446 392 CURVE SMOOTH",
"330 235 LINE",
"259 304 LINE SMOOTH",
"255 309 OFFCURVE",
"249 311 OFFCURVE",
"243 310 CURVE SMOOTH",
"237 309 OFFCURVE",
"234 308 OFFCURVE",
"232 303 CURVE SMOOTH",
"135 126 LINE",
"39 126 LINE SMOOTH",
"27 126 OFFCURVE",
"0 125 OFFCURVE",
"0 107 CURVE SMOOTH",
"0 89 OFFCURVE",
"0 89 OFFCURVE",
"0 68 CURVE SMOOTH",
"0 46 OFFCURVE",
"31 48 OFFCURVE",
"39 48 CURVE SMOOTH",
"177 49 LINE SMOOTH",
"184 49 OFFCURVE",
"190 50 OFFCURVE",
"194 57 CURVE SMOOTH",
"262 193 LINE",
"324 133 LINE SMOOTH",
"328 129 OFFCURVE",
"334 127 OFFCURVE",
"339 127 CURVE SMOOTH",
"345 128 OFFCURVE",
"350 131 OFFCURVE",
"353 135 CURVE SMOOTH",
"502 342 LINE SMOOTH",
"505 346 OFFCURVE",
"512 355 OFFCURVE",
"511 360 CURVE SMOOTH",
"510 365 OFFCURVE",
"508 370 OFFCURVE",
"504 373 CURVE SMOOTH"
);
}
);
width = 512;
}
);
unicode = F026;
},
{
glyphname = F027;
lastChange = "2013-10-25 07:18:19 +0800";
layers = (
{
layerId = "D92E8CCE-7036-4CD1-A654-23E4C8CE3D75";
name = Regular;
paths = (
{
closed = 1;
nodes = (
"473 47 LINE",
"473 86 LINE",
"295 86 LINE",
"295 47 LINE"
);
},
{
closed = 1;
nodes = (
"473 204 LINE",
"473 244 LINE",
"177 244 LINE",
"177 204 LINE"
);
},
{
closed = 1;
nodes = (
"473 362 LINE",
"473 401 LINE",
"354 401 LINE",
"354 362 LINE"
);
},
{
closed = 1;
nodes = (
"512 27 LINE SMOOTH",
"512 17 OFFCURVE",
"502 7 OFFCURVE",
"492 7 CURVE SMOOTH",
"20 7 LINE SMOOTH",
"10 7 OFFCURVE",
"0 17 OFFCURVE",
"0 27 CURVE SMOOTH",
"0 106 LINE SMOOTH",
"0 116 OFFCURVE",
"10 126 OFFCURVE",
"20 126 CURVE SMOOTH",
"492 126 LINE SMOOTH",
"502 126 OFFCURVE",
"512 116 OFFCURVE",
"512 106 CURVE SMOOTH",
"512 95 LINE",
"512 106 LINE"
);
},
{
closed = 1;
nodes = (
"512 187 LINE SMOOTH",
"512 177 OFFCURVE",
"502 165 OFFCURVE",
"492 165 CURVE SMOOTH",
"20 165 LINE SMOOTH",
"10 165 OFFCURVE",
"0 177 OFFCURVE",
"0 187 CURVE SMOOTH",
"0 261 LINE SMOOTH",
"0 271 OFFCURVE",
"10 283 OFFCURVE",
"20 283 CURVE SMOOTH",
"492 283 LINE SMOOTH",
"502 283 OFFCURVE",
"512 271 OFFCURVE",
"512 261 CURVE",
"512 261 LINE"
);
},
{
closed = 1;
nodes = (
"512 342 LINE SMOOTH",
"512 332 OFFCURVE",
"502 322 OFFCURVE",
"492 322 CURVE SMOOTH",
"20 322 LINE SMOOTH",
"10 322 OFFCURVE",
"0 332 OFFCURVE",
"0 342 CURVE SMOOTH",
"0 421 LINE SMOOTH",
"0 431 OFFCURVE",
"10 441 OFFCURVE",
"20 441 CURVE SMOOTH",
"492 441 LINE SMOOTH",
"502 441 OFFCURVE",
"512 437 OFFCURVE",
"512 427 CURVE SMOOTH",
"512 421 LINE"
);
}
);
width = 512;
}
);
unicode = F027;
},
{
glyphname = F028;
lastChange = "2013-10-25 07:18:55 +0800";
layers = (
{
layerId = "D92E8CCE-7036-4CD1-A654-23E4C8CE3D75";
name = Regular;
paths = (
{
closed = 1;
nodes = (
"281 321 OFFCURVE",
"301 300 OFFCURVE",
"301 275 CURVE SMOOTH",
"301 249 OFFCURVE",
"281 229 OFFCURVE",
"256 229 CURVE SMOOTH",
"230 229 OFFCURVE",
"210 249 OFFCURVE",
"210 275 CURVE SMOOTH",
"210 300 OFFCURVE",
"230 321 OFFCURVE",
"256 321 CURVE SMOOTH"
);
},
{
closed = 1;
nodes = (
"219 341 OFFCURVE",
"189 311 OFFCURVE",
"189 275 CURVE SMOOTH",
"189 238 OFFCURVE",
"219 208 OFFCURVE",
"256 208 CURVE SMOOTH",
"292 208 OFFCURVE",
"322 238 OFFCURVE",
"322 275 CURVE SMOOTH",
"322 311 OFFCURVE",
"292 341 OFFCURVE",
"256 341 CURVE SMOOTH"
);
},
{
closed = 1;
nodes = (
"341 219 OFFCURVE",
"303 183 OFFCURVE",
"256 183 CURVE SMOOTH",
"209 183 OFFCURVE",
"170 219 OFFCURVE",
"165 264 CURVE",
"0 264 LINE",
"0 22 LINE SMOOTH",
"0 -8 OFFCURVE",
"22 -32 OFFCURVE",
"49 -32 CURVE SMOOTH",
"463 -32 LINE SMOOTH",
"490 -32 OFFCURVE",
"512 -8 OFFCURVE",
"512 22 CURVE SMOOTH",
"512 264 LINE",
"346 264 LINE"
);
},
{
closed = 1;
nodes = (
"49 480 LINE SMOOTH",
"22 480 OFFCURVE",
"0 456 OFFCURVE",
"0 427 CURVE SMOOTH",
"0 285 LINE",
"165 285 LINE",
"170 331 OFFCURVE",
"209 366 OFFCURVE",
"256 366 CURVE SMOOTH",
"303 366 OFFCURVE",
"341 331 OFFCURVE",
"346 285 CURVE",
"512 285 LINE",
"512 427 LINE SMOOTH",
"512 456 OFFCURVE",
"490 480 OFFCURVE",
"463 480 CURVE SMOOTH"
);
}
);
width = 512;
}
);
unicode = F028;
},
{
glyphname = F029;
lastChange = "2013-10-18 08:13:31 +0800";
layers = (
{
layerId = "D92E8CCE-7036-4CD1-A654-23E4C8CE3D75";
name = Regular;
paths = (
{
closed = 1;
nodes = (
"233 403 LINE",
"489 292 LINE",
"254 176 LINE",
"0 281 LINE"
);
},
{
closed = 1;
nodes = (
"224 138 LINE",
"284 136 LINE",
"470 247 LINE",
"509 215 LINE",
"276 114 LINE",
"215 113 LINE",
"20 221 LINE",
"20 232 LINE"
);
},
{
closed = 1;
nodes = (
"190 90 LINE",
"278 85 LINE",
"469 175 LINE",
"512 133 LINE",
"227 47 LINE",
"196 45 LINE",
"57 173 LINE"
);
}
);
width = 512;
}
);
unicode = F029;
},
{
glyphname = F02A;
lastChange = "2013-10-18 08:27:19 +0800";
layers = (
{
layerId = "D92E8CCE-7036-4CD1-A654-23E4C8CE3D75";
name = Regular;
paths = (
{
closed = 1;
nodes = (
"299 267 LINE",
"299 438 LINE SMOOTH",
"299 456 OFFCURVE",
"274 480 OFFCURVE",
"256 480 CURVE SMOOTH",
"42 480 LINE SMOOTH",
"25 480 OFFCURVE",
"0 456 OFFCURVE",
"0 438 CURVE SMOOTH",
"0 10 LINE SMOOTH",
"0 -8 OFFCURVE",
"25 -32 OFFCURVE",
"42 -32 CURVE SMOOTH",
"256 -32 LINE",
"470 -32 LINE SMOOTH",
"487 -32 OFFCURVE",
"512 -8 OFFCURVE",
"512 10 CURVE SMOOTH",
"512 224 LINE SMOOTH",
"512 243 OFFCURVE",
"487 267 OFFCURVE",
"470 267 CURVE SMOOTH"
);
},
{
closed = 1;
nodes = (
"78 121 OFFCURVE",
"64 136 OFFCURVE",
"64 155 CURVE SMOOTH",
"64 174 OFFCURVE",
"78 189 OFFCURVE",
"96 189 CURVE SMOOTH",
"114 189 OFFCURVE",
"128 174 OFFCURVE",
"128 155 CURVE SMOOTH",
"128 136 OFFCURVE",
"114 121 OFFCURVE",
"96 121 CURVE SMOOTH"
);
},
{
closed = 1;
nodes = (
"78 223 OFFCURVE",
"64 238 OFFCURVE",
"64 257 CURVE SMOOTH",
"64 276 OFFCURVE",
"78 291 OFFCURVE",
"96 291 CURVE SMOOTH",
"114 291 OFFCURVE",
"128 276 OFFCURVE",
"128 257 CURVE SMOOTH",
"128 238 OFFCURVE",
"114 223 OFFCURVE",
"96 223 CURVE SMOOTH"
);
},
{
closed = 1;
nodes = (
"78 325 OFFCURVE",
"64 340 OFFCURVE",
"64 359 CURVE SMOOTH",
"64 378 OFFCURVE",
"78 393 OFFCURVE",
"96 393 CURVE SMOOTH",
"114 393 OFFCURVE",
"128 378 OFFCURVE",
"128 359 CURVE SMOOTH",
"128 340 OFFCURVE",
"114 325 OFFCURVE",
"96 325 CURVE SMOOTH"
);
},
{
closed = 1;
nodes = (
"174 121 OFFCURVE",
"160 136 OFFCURVE",
"160 155 CURVE SMOOTH",
"160 174 OFFCURVE",
"174 189 OFFCURVE",
"192 189 CURVE SMOOTH",
"209 189 OFFCURVE",
"224 174 OFFCURVE",
"224 155 CURVE SMOOTH",
"224 136 OFFCURVE",
"209 121 OFFCURVE",
"192 121 CURVE SMOOTH"
);
},
{
closed = 1;
nodes = (
"174 223 OFFCURVE",
"160 238 OFFCURVE",
"160 257 CURVE SMOOTH",
"160 276 OFFCURVE",
"174 291 OFFCURVE",
"192 291 CURVE SMOOTH",
"209 291 OFFCURVE",
"224 276 OFFCURVE",
"224 257 CURVE SMOOTH",
"224 238 OFFCURVE",
"209 223 OFFCURVE",
"192 223 CURVE SMOOTH"
);
},
{
closed = 1;
nodes = (
"174 325 OFFCURVE",
"160 340 OFFCURVE",
"160 359 CURVE SMOOTH",
"160 378 OFFCURVE",
"174 393 OFFCURVE",
"192 393 CURVE SMOOTH",
"209 393 OFFCURVE",
"224 378 OFFCURVE",
"224 359 CURVE SMOOTH",
"224 340 OFFCURVE",
"209 325 OFFCURVE",
"192 325 CURVE SMOOTH"
);
},
{
closed = 1;
nodes = (
"303 121 OFFCURVE",
"288 136 OFFCURVE",
"288 155 CURVE SMOOTH",
"288 174 OFFCURVE",
"303 189 OFFCURVE",
"320 189 CURVE SMOOTH",
"338 189 OFFCURVE",
"352 174 OFFCURVE",
"352 155 CURVE SMOOTH",
"352 136 OFFCURVE",
"338 121 OFFCURVE",
"320 121 CURVE SMOOTH"
);
},
{
closed = 1;
nodes = (
"398 121 OFFCURVE",
"384 136 OFFCURVE",
"384 155 CURVE SMOOTH",
"384 174 OFFCURVE",
"398 189 OFFCURVE",
"416 189 CURVE SMOOTH",
"434 189 OFFCURVE",
"448 174 OFFCURVE",
"448 155 CURVE SMOOTH",
"448 136 OFFCURVE",
"434 121 OFFCURVE",
"416 121 CURVE SMOOTH"
);
}
);
width = 512;
}
);
unicode = F02A;
},
{
glyphname = F02B;
lastChange = "2013-10-18 08:27:28 +0800";
layers = (
{
layerId = "D92E8CCE-7036-4CD1-A654-23E4C8CE3D75";
name = Regular;
paths = (
{
closed = 1;
nodes = (
"512 462 OFFCURVE",
"494 480 OFFCURVE",
"473 480 CURVE SMOOTH",
"39 480 LINE SMOOTH",
"18 480 OFFCURVE",
"0 462 OFFCURVE",
"0 441 CURVE SMOOTH",
"0 7 LINE SMOOTH",
"0 -14 OFFCURVE",
"18 -32 OFFCURVE",
"39 -32 CURVE SMOOTH",
"473 -32 LINE SMOOTH",
"494 -32 OFFCURVE",
"512 -14 OFFCURVE",
"512 7 CURVE SMOOTH",
"512 441 LINE SMOOTH"
);
},
{
closed = 1;
nodes = (
"230 213 OFFCURVE",
"216 198 OFFCURVE",
"205 198 CURVE SMOOTH",
"103 198 LINE SMOOTH",
"92 198 OFFCURVE",
"77 213 OFFCURVE",
"77 224 CURVE SMOOTH",
"77 377 LINE SMOOTH",
"77 388 OFFCURVE",
"92 403 OFFCURVE",
"103 403 CURVE SMOOTH",
"205 403 LINE SMOOTH",
"220 403 OFFCURVE",
"230 388 OFFCURVE",
"230 377 CURVE SMOOTH",
"230 224 LINE SMOOTH"
);
},
{
closed = 1;
nodes = (
"435 85 OFFCURVE",
"420 71 OFFCURVE",
"409 71 CURVE SMOOTH",
"307 71 LINE SMOOTH",
"296 71 OFFCURVE",
"282 85 OFFCURVE",
"282 96 CURVE SMOOTH",
"282 377 LINE SMOOTH",
"282 388 OFFCURVE",
"296 403 OFFCURVE",
"307 403 CURVE SMOOTH",
"409 403 LINE SMOOTH",
"420 403 OFFCURVE",
"435 388 OFFCURVE",
"435 377 CURVE SMOOTH",
"435 96 LINE SMOOTH"
);
}
);
width = 512;
}
);
unicode = F02B;
},
{
glyphname = F02C;
lastChange = "2013-10-18 08:27:35 +0800";
layers = (
{
layerId = "D92E8CCE-7036-4CD1-A654-23E4C8CE3D75";
name = Regular;
paths = (
{
closed = 1;
nodes = (
"73 480 LINE SMOOTH",
"33 480 OFFCURVE",
"0 447 OFFCURVE",
"0 407 CURVE SMOOTH",
"0 41 LINE SMOOTH",
"0 1 OFFCURVE",
"33 -32 OFFCURVE",
"73 -32 CURVE SMOOTH",
"181 -32 LINE",
"181 -31 LINE",
"255 -31 LINE SMOOTH",
"275 -31 OFFCURVE",
"292 -15 OFFCURVE",
"292 5 CURVE SMOOTH",
"292 25 OFFCURVE",
"275 42 OFFCURVE",
"255 42 CURVE SMOOTH",
"219 42 LINE SMOOTH",
"219 42 OFFCURVE",
"181 40 OFFCURVE",
"181 79 CURVE SMOOTH",
"181 117 OFFCURVE",
"181 152 OFFCURVE",
"181 152 CURVE",
"181 172 OFFCURVE",
"199 188 OFFCURVE",
"219 188 CURVE SMOOTH",
"292 188 LINE",
"292 371 LINE SMOOTH",
"292 391 OFFCURVE",
"308 408 OFFCURVE",
"328 408 CURVE SMOOTH",
"401 408 LINE SMOOTH",
"422 408 OFFCURVE",
"438 391 OFFCURVE",
"438 371 CURVE SMOOTH",
"438 188 LINE",
"512 188 LINE",
"512 407 LINE SMOOTH",
"512 447 OFFCURVE",
"479 480 OFFCURVE",
"439 480 CURVE SMOOTH"
);
},
{
closed = 1;
nodes = (
"219 241 OFFCURVE",
"202 225 OFFCURVE",
"182 225 CURVE SMOOTH",
"109 225 LINE SMOOTH",
"89 225 OFFCURVE",
"72 241 OFFCURVE",
"72 261 CURVE SMOOTH",
"72 371 LINE SMOOTH",
"72 391 OFFCURVE",
"89 408 OFFCURVE",
"109 408 CURVE SMOOTH",
"182 408 LINE SMOOTH",
"202 408 OFFCURVE",
"219 391 OFFCURVE",
"219 371 CURVE SMOOTH",
"219 261 LINE SMOOTH"
);
},
{
closed = 1;
nodes = (
"385 261 OFFCURVE",
"401 245 OFFCURVE",
"401 225 CURVE SMOOTH",
"401 6 LINE SMOOTH",
"401 -15 OFFCURVE",
"385 -31 OFFCURVE",
"365 -31 CURVE SMOOTH",
"345 -31 OFFCURVE",
"328 -15 OFFCURVE",
"328 6 CURVE SMOOTH",
"328 225 LINE SMOOTH",
"328 245 OFFCURVE",
"345 261 OFFCURVE",
"365 261 CURVE SMOOTH"
);
},
{
closed = 1;
nodes = (
"219 135 OFFCURVE",
"235 152 OFFCURVE",
"255 152 CURVE SMOOTH",
"474 152 LINE SMOOTH",
"495 152 OFFCURVE",
"511 135 OFFCURVE",
"511 115 CURVE SMOOTH",
"511 95 OFFCURVE",
"495 79 OFFCURVE",
"474 79 CURVE SMOOTH",
"255 79 LINE SMOOTH",
"235 79 OFFCURVE",
"219 95 OFFCURVE",
"219 115 CURVE SMOOTH"
);
}
);
width = 512;
}
);
unicode = F02C;
},
{
glyphname = F02D;
lastChange = "2013-10-21 02:04:11 +0800";
layers = (
{
layerId = "D92E8CCE-7036-4CD1-A654-23E4C8CE3D75";
name = Regular;
paths = (
{
closed = 1;
nodes = (
"386 261 OFFCURVE",
"402 244 OFFCURVE",
"402 224 CURVE SMOOTH",
"402 5 LINE SMOOTH",
"402 -15 OFFCURVE",
"386 -32 OFFCURVE",
"366 -32 CURVE SMOOTH",
"346 -32 OFFCURVE",
"329 -15 OFFCURVE",
"329 5 CURVE SMOOTH",
"329 224 LINE SMOOTH",
"329 244 OFFCURVE",
"346 261 OFFCURVE",
"366 261 CURVE SMOOTH"
);
},
{
closed = 1;
nodes = (
"219 135 OFFCURVE",
"236 151 OFFCURVE",
"256 151 CURVE SMOOTH",
"475 151 LINE SMOOTH",
"496 151 OFFCURVE",
"512 135 OFFCURVE",
"512 115 CURVE SMOOTH",
"512 95 OFFCURVE",
"496 78 OFFCURVE",
"475 78 CURVE SMOOTH",
"256 78 LINE SMOOTH",
"236 78 OFFCURVE",
"219 95 OFFCURVE",
"219 115 CURVE SMOOTH"
);
},
{
closed = 1;
nodes = (
"128 78 LINE SMOOTH",
"158 78 OFFCURVE",
"183 54 OFFCURVE",
"183 23 CURVE SMOOTH",
"183 -7 OFFCURVE",
"158 -32 OFFCURVE",
"128 -32 CURVE SMOOTH",
"55 -32 LINE SMOOTH",
"24 -32 OFFCURVE",
"0 -7 OFFCURVE",
"0 23 CURVE SMOOTH",
"0 54 OFFCURVE",
"24 78 OFFCURVE",
"55 78 CURVE SMOOTH"
);
},
{
closed = 1;
nodes = (
"165 261 LINE SMOOTH",
"195 261 OFFCURVE",
"219 236 OFFCURVE",
"219 206 CURVE SMOOTH",
"219 176 OFFCURVE",
"195 151 OFFCURVE",
"165 151 CURVE SMOOTH",
"55 151 LINE SMOOTH",
"24 151 OFFCURVE",
"0 176 OFFCURVE",
"0 206 CURVE SMOOTH",
"0 236 OFFCURVE",
"24 261 OFFCURVE",
"55 261 CURVE SMOOTH"
);
},
{
closed = 1;
nodes = (
"347 444 LINE SMOOTH",
"378 444 OFFCURVE",
"402 419 OFFCURVE",
"402 389 CURVE SMOOTH",
"402 358 OFFCURVE",
"378 334 OFFCURVE",
"347 334 CURVE SMOOTH",
"55 334 LINE SMOOTH",
"24 334 OFFCURVE",
"0 358 OFFCURVE",
"0 389 CURVE SMOOTH",
"0 419 OFFCURVE",
"24 444 OFFCURVE",
"55 444 CURVE SMOOTH"
);
}
);
width = 512;
}
);
unicode = F02D;
},
{
glyphname = F02E;
lastChange = "2013-10-18 08:33:00 +0800";
layers = (
{
layerId = "D92E8CCE-7036-4CD1-A654-23E4C8CE3D75";
name = Regular;
paths = (
{
closed = 1;
nodes = (
"115 480 OFFCURVE",
"0 365 OFFCURVE",
"0 224 CURVE SMOOTH",
"0 83 OFFCURVE",
"115 -32 OFFCURVE",
"256 -32 CURVE SMOOTH",
"397 -32 OFFCURVE",
"512 83 OFFCURVE",
"512 224 CURVE SMOOTH",
"512 365 OFFCURVE",
"397 480 OFFCURVE",
"256 480 CURVE SMOOTH"
);
},
{
closed = 1;
nodes = (
"155 41 OFFCURVE",
"73 123 OFFCURVE",
"73 224 CURVE SMOOTH",
"73 325 OFFCURVE",
"155 407 OFFCURVE",
"256 407 CURVE SMOOTH",
"357 407 OFFCURVE",
"439 325 OFFCURVE",
"439 224 CURVE SMOOTH",
"439 123 OFFCURVE",
"357 41 OFFCURVE",
"256 41 CURVE SMOOTH"
);
}
);
width = 512;
}
);
unicode = F02E;
},
{
glyphname = F02F;
lastChange = "2013-10-18 08:33:11 +0800";
layers = (
{
layerId = "D92E8CCE-7036-4CD1-A654-23E4C8CE3D75";
name = Regular;
paths = (
{
closed = 1;
nodes = (
"110 480 LINE SMOOTH",
"49 480 OFFCURVE",
"0 431 OFFCURVE",
"0 370 CURVE SMOOTH",
"0 78 LINE SMOOTH",
"0 17 OFFCURVE",
"49 -32 OFFCURVE",
"110 -32 CURVE SMOOTH",
"402 -32 LINE SMOOTH",
"463 -32 OFFCURVE",
"512 17 OFFCURVE",
"512 78 CURVE SMOOTH",
"512 370 LINE SMOOTH",
"512 431 OFFCURVE",
"463 480 OFFCURVE",
"402 480 CURVE SMOOTH"
);
},
{
closed = 1;
nodes = (
"438 58 OFFCURVE",
"422 42 OFFCURVE",
"402 42 CURVE SMOOTH",
"110 42 LINE SMOOTH",
"90 42 OFFCURVE",
"74 58 OFFCURVE",
"74 78 CURVE SMOOTH",
"74 370 LINE SMOOTH",
"74 390 OFFCURVE",
"90 406 OFFCURVE",
"110 406 CURVE SMOOTH",
"402 406 LINE SMOOTH",
"422 406 OFFCURVE",
"438 390 OFFCURVE",
"438 370 CURVE SMOOTH",
"438 78 LINE SMOOTH"
);
}
);
width = 512;
}
);
unicode = F02F;
},
{
glyphname = F030;
lastChange = "2013-10-18 08:33:34 +0800";
layers = (
{
layerId = "D92E8CCE-7036-4CD1-A654-23E4C8CE3D75";
name = Regular;
paths = (
{
closed = 1;
nodes = (
"110 480 LINE SMOOTH",
"49 480 OFFCURVE",
"0 431 OFFCURVE",
"0 370 CURVE SMOOTH",
"0 78 LINE SMOOTH",
"0 17 OFFCURVE",
"49 -32 OFFCURVE",
"110 -32 CURVE SMOOTH",
"402 -32 LINE SMOOTH",
"463 -32 OFFCURVE",
"512 17 OFFCURVE",
"512 78 CURVE SMOOTH",
"512 370 LINE SMOOTH",
"512 431 OFFCURVE",
"463 480 OFFCURVE",
"402 480 CURVE SMOOTH"
);
},
{
closed = 1;
nodes = (
"439 58 OFFCURVE",
"422 41 OFFCURVE",
"402 41 CURVE SMOOTH",
"109 41 LINE SMOOTH",
"89 41 OFFCURVE",
"73 58 OFFCURVE",
"73 78 CURVE SMOOTH",
"73 371 LINE SMOOTH",
"73 391 OFFCURVE",
"89 407 OFFCURVE",
"109 407 CURVE SMOOTH",
"402 407 LINE SMOOTH",
"422 407 OFFCURVE",
"439 391 OFFCURVE",
"439 371 CURVE SMOOTH",
"439 78 LINE SMOOTH"
);
},
{
closed = 1;
nodes = (
"183 297 LINE",
"183 371 LINE",
"109 371 LINE",
"109 297 LINE"
);
},
{
closed = 1;
nodes = (
"183 187 LINE",
"183 261 LINE",
"109 261 LINE",
"109 187 LINE"
);
},
{
closed = 1;
nodes = (
"183 77 LINE",
"183 151 LINE",
"109 151 LINE",
"109 77 LINE"
);
}
);
width = 512;
}
);
unicode = F030;
},
{
glyphname = F031;
lastChange = "2013-10-18 08:33:26 +0800";
layers = (
{
layerId = "D92E8CCE-7036-4CD1-A654-23E4C8CE3D75";
name = Regular;
paths = (
{
closed = 1;
nodes = (
"109 481 LINE SMOOTH",
"49 481 OFFCURVE",
"0 431 OFFCURVE",
"0 371 CURVE SMOOTH",
"0 78 LINE SMOOTH",
"0 18 OFFCURVE",
"49 -33 OFFCURVE",
"109 -33 CURVE SMOOTH",
"402 -33 LINE SMOOTH",
"462 -33 OFFCURVE",
"512 18 OFFCURVE",
"512 78 CURVE SMOOTH",
"512 371 LINE SMOOTH",
"512 431 OFFCURVE",
"462 481 OFFCURVE",
"402 481 CURVE SMOOTH"
);
},
{
closed = 1;
nodes = (
"438 58 OFFCURVE",
"422 42 OFFCURVE",
"402 42 CURVE SMOOTH",
"109 42 LINE SMOOTH",
"89 42 OFFCURVE",
"73 58 OFFCURVE",
"73 78 CURVE SMOOTH",
"73 371 LINE SMOOTH",
"73 391 OFFCURVE",
"89 407 OFFCURVE",
"109 407 CURVE SMOOTH",
"402 407 LINE SMOOTH",
"422 407 OFFCURVE",
"438 391 OFFCURVE",
"438 371 CURVE SMOOTH",
"438 78 LINE SMOOTH"
);
},
{
closed = 1;
nodes = (
"372 333 OFFCURVE",
"369 334 OFFCURVE",
"367 334 CURVE SMOOTH",
"364 334 OFFCURVE",
"362 333 OFFCURVE",
"360 331 CURVE SMOOTH",
"224 196 LINE SMOOTH",
"220 192 OFFCURVE",
"215 192 OFFCURVE",
"211 196 CURVE",
"151 257 LINE SMOOTH",
"150 258 OFFCURVE",
"147 259 OFFCURVE",
"145 259 CURVE SMOOTH",
"142 259 OFFCURVE",
"140 258 OFFCURVE",
"138 257 CURVE",
"112 233 LINE",
"110 231 OFFCURVE",
"109 229 OFFCURVE",
"109 227 CURVE SMOOTH",
"109 224 OFFCURVE",
"110 222 OFFCURVE",
"112 220 CURVE SMOOTH",
"172 157 LINE SMOOTH",
"178 151 OFFCURVE",
"182 147 OFFCURVE",
"185 144 CURVE SMOOTH",
"211 118 LINE",
"215 114 OFFCURVE",
"220 114 OFFCURVE",
"224 118 CURVE SMOOTH",
"399 292 LINE SMOOTH",
"401 294 OFFCURVE",
"402 296 OFFCURVE",
"402 299 CURVE SMOOTH",
"402 302 OFFCURVE",
"401 304 OFFCURVE",
"399 306 CURVE SMOOTH",
"373 331 LINE SMOOTH"
);
}
);
width = 512;
}
);
unicode = F031;
},
{
glyphname = F032;
lastChange = "2013-10-18 09:23:18 +0800";
layers = (
{
layerId = "D92E8CCE-7036-4CD1-A654-23E4C8CE3D75";
name = Regular;
paths = (
{
closed = 1;
nodes = (
"73 -32 LINE SMOOTH",
"53 -32 OFFCURVE",
"37 -16 OFFCURVE",
"37 4 CURVE SMOOTH",
"37 443 LINE SMOOTH",
"37 464 OFFCURVE",
"53 480 OFFCURVE",
"73 480 CURVE SMOOTH",
"329 480 LINE",
"475 334 LINE",
"475 4 LINE SMOOTH",
"475 -16 OFFCURVE",
"459 -32 OFFCURVE",
"438 -32 CURVE SMOOTH"
);
},
{
closed = 1;
nodes = (
"292 407 LINE",
"110 407 LINE",
"110 42 LINE",
"402 42 LINE",
"402 298 LINE",
"292 298 LINE"
);
}
);
width = 512;
}
);
unicode = F032;
},
{
glyphname = F033;
lastChange = "2013-10-18 09:24:21 +0800";
layers = (
{
layerId = "D92E8CCE-7036-4CD1-A654-23E4C8CE3D75";
name = Regular;
paths = (
{
closed = 1;
nodes = (
"323 117 OFFCURVE",
"334 45 OFFCURVE",
"287 45 CURVE",
"196 64 OFFCURVE",
"107 175 OFFCURVE",
"107 189 CURVE",
"210 309 OFFCURVE",
"245 332 OFFCURVE",
"287 332 CURVE SMOOTH",
"328 332 OFFCURVE",
"322 278 OFFCURVE",
"322 260 CURVE",
"400 278 OFFCURVE",
"430 332 OFFCURVE",
"430 332 CURVE",
"430 404 LINE SMOOTH",
"430 443 OFFCURVE",
"399 475 OFFCURVE",
"359 475 CURVE SMOOTH",
"72 475 LINE SMOOTH",
"32 475 OFFCURVE",
"0 443 OFFCURVE",
"0 404 CURVE SMOOTH",
"0 45 LINE SMOOTH",
"0 6 OFFCURVE",
"32 -27 OFFCURVE",
"72 -27 CURVE SMOOTH",
"359 -27 LINE SMOOTH",
"399 -27 OFFCURVE",
"430 6 OFFCURVE",
"430 45 CURVE SMOOTH",
"430 186 LINE",
"430 186 OFFCURVE",
"430 186 OFFCURVE",
"430 186 CURVE",
"417 122 OFFCURVE",
"356 117 OFFCURVE",
"323 117 CURVE SMOOTH"
);
},
{
closed = 1;
nodes = (
"448 284 OFFCURVE",
"407 225 OFFCURVE",
"287 225 CURVE",
"287 260 OFFCURVE",
"287 296 OFFCURVE",
"287 296 CURVE",
"144 189 LINE",
"287 81 LINE",
"287 153 LINE",
"287 153 OFFCURVE",
"363 147 OFFCURVE",
"430 186 CURVE",
"430 187 OFFCURVE",
"430 188 OFFCURVE",
"430 189 CURVE",
"430 186 LINE",
"448 197 OFFCURVE",
"464 210 OFFCURVE",
"479 227 CURVE",
"511 269 OFFCURVE",
"512 371 OFFCURVE",
"461 315 CURVE"
);
}
);
width = 512;
}
);
unicode = F033;
},
{
glyphname = F034;
lastChange = "2013-10-18 09:34:27 +0800";
layers = (
{
layerId = "D92E8CCE-7036-4CD1-A654-23E4C8CE3D75";
name = Regular;
paths = (
{
closed = 1;
nodes = (
"474 191 LINE SMOOTH",
"499 217 OFFCURVE",
"512 248 OFFCURVE",
"512 285 CURVE SMOOTH",
"512 321 OFFCURVE",
"499 352 OFFCURVE",
"474 377 CURVE",
"449 404 OFFCURVE",
"418 417 OFFCURVE",
"381 416 CURVE SMOOTH",
"367 416 OFFCURVE",
"350 411 OFFCURVE",
"329 400 CURVE SMOOTH",
"308 389 OFFCURVE",
"291 378 OFFCURVE",
"277 367 CURVE SMOOTH",
"256 351 LINE",
"251 356 OFFCURVE",
"243 363 OFFCURVE",
"233 370 CURVE SMOOTH",
"223 377 OFFCURVE",
"207 386 OFFCURVE",
"184 398 CURVE SMOOTH",
"161 410 OFFCURVE",
"143 416 OFFCURVE",
"128 416 CURVE SMOOTH",
"93 416 OFFCURVE",
"63 403 OFFCURVE",
"38 378 CURVE SMOOTH",
"13 352 OFFCURVE",
"0 321 OFFCURVE",
"0 285 CURVE SMOOTH",
"0 248 OFFCURVE",
"13 217 OFFCURVE",
"38 191 CURVE SMOOTH",
"256 -32 LINE"
);
}
);
width = 512;
}
);
unicode = F034;
},
{
glyphname = F035;
lastChange = "2013-10-24 03:58:08 +0800";
layers = (
{
layerId = "D92E8CCE-7036-4CD1-A654-23E4C8CE3D75";
name = Regular;
paths = (
{
closed = 1;
nodes = (
"256 480 OFFCURVE",
"36 479 OFFCURVE",
"36 298 CURVE SMOOTH",
"36 83 OFFCURVE",
"256 -32 OFFCURVE",
"256 -32 CURVE SMOOTH",
"256 -32 OFFCURVE",
"476 81 OFFCURVE",
"476 298 CURVE SMOOTH",
"476 478 OFFCURVE",
"256 480 OFFCURVE",
"256 480 CURVE SMOOTH"
);
},
{
closed = 1;
nodes = (
"216 224 OFFCURVE",
"183 258 OFFCURVE",
"183 298 CURVE SMOOTH",
"183 338 OFFCURVE",
"216 371 OFFCURVE",
"256 371 CURVE SMOOTH",
"296 371 OFFCURVE",
"330 338 OFFCURVE",
"330 298 CURVE SMOOTH",
"330 258 OFFCURVE",
"296 224 OFFCURVE",
"256 224 CURVE SMOOTH"
);
}
);
width = 512;
}
);
unicode = F035;
},
{
glyphname = F036;
lastChange = "2013-11-15 03:41:14 +0800";
layers = (
{
layerId = "D92E8CCE-7036-4CD1-A654-23E4C8CE3D75";
name = Regular;
paths = (
{
closed = 1;
nodes = (
"224 352 LINE",
"224 192 LINE",
"352 192 LINE",
"352 256 LINE",
"288 256 LINE",
"288 352 LINE"
);
},
{
closed = 1;
nodes = (
"114 480 OFFCURVE",
"0 366 OFFCURVE",
"0 224 CURVE SMOOTH",
"0 83 OFFCURVE",
"114 -32 OFFCURVE",
"256 -32 CURVE SMOOTH",
"397 -32 OFFCURVE",
"512 83 OFFCURVE",
"512 224 CURVE SMOOTH",
"512 366 OFFCURVE",
"397 480 OFFCURVE",
"256 480 CURVE SMOOTH"
);
},
{
closed = 1;
nodes = (
"150 32 OFFCURVE",
"64 118 OFFCURVE",
"64 224 CURVE SMOOTH",
"64 330 OFFCURVE",
"150 416 OFFCURVE",
"256 416 CURVE SMOOTH",
"362 416 OFFCURVE",
"448 330 OFFCURVE",
"448 224 CURVE SMOOTH",
"448 118 OFFCURVE",
"362 32 OFFCURVE",
"256 32 CURVE SMOOTH"
);
}
);
width = 512;
}
);
unicode = F036;
},
{
glyphname = F037;
lastChange = "2013-10-18 09:36:05 +0800";
layers = (
{
layerId = "D92E8CCE-7036-4CD1-A654-23E4C8CE3D75";
name = Regular;
paths = (
{
closed = 1;
nodes = (
"387 455 OFFCURVE",
"327 480 OFFCURVE",
"256 480 CURVE SMOOTH",
"185 480 OFFCURVE",
"125 455 OFFCURVE",
"75 405 CURVE SMOOTH",
"25 355 OFFCURVE",
"0 295 OFFCURVE",
"0 224 CURVE SMOOTH",
"0 153 OFFCURVE",
"25 93 OFFCURVE",
"75 43 CURVE SMOOTH",
"125 -7 OFFCURVE",
"185 -32 OFFCURVE",
"256 -32 CURVE SMOOTH",
"327 -32 OFFCURVE",
"387 -7 OFFCURVE",
"437 43 CURVE SMOOTH",
"487 93 OFFCURVE",
"512 153 OFFCURVE",
"512 224 CURVE SMOOTH",
"512 295 OFFCURVE",
"487 355 OFFCURVE",
"437 405 CURVE SMOOTH"
);
},
{
closed = 1;
nodes = (
"238 92 LINE",
"233 88 OFFCURVE",
"229 88 OFFCURVE",
"224 92 CURVE",
"197 120 LINE SMOOTH",
"196 121 OFFCURVE",
"192 125 OFFCURVE",
"184 134 CURVE",
"120 200 LINE",
"119 202 OFFCURVE",
"118 204 OFFCURVE",
"118 207 CURVE SMOOTH",
"118 210 OFFCURVE",
"119 212 OFFCURVE",
"120 214 CURVE",
"148 239 LINE",
"150 240 OFFCURVE",
"152 241 OFFCURVE",
"155 241 CURVE SMOOTH",
"158 241 OFFCURVE",
"160 240 OFFCURVE",
"162 239 CURVE",
"224 175 LINE SMOOTH",
"229 170 OFFCURVE",
"233 170 OFFCURVE",
"238 175 CURVE SMOOTH",
"381 317 LINE SMOOTH",
"386 322 OFFCURVE",
"390 322 OFFCURVE",
"394 317 CURVE",
"421 290 LINE SMOOTH",
"426 285 OFFCURVE",
"426 281 OFFCURVE",
"421 276 CURVE SMOOTH"
);
}
);
width = 512;
}
);
unicode = F037;
},
{
glyphname = F038;
lastChange = "2013-10-18 09:36:13 +0800";
layers = (
{
layerId = "D92E8CCE-7036-4CD1-A654-23E4C8CE3D75";
name = Regular;
paths = (
{
closed = 1;
nodes = (
"240 448 OFFCURVE",
"233 447 OFFCURVE",
"228 445 CURVE",
"223 442 OFFCURVE",
"219 440 OFFCURVE",
"218 438 CURVE",
"215 434 LINE",
"208 426 OFFCURVE",
"200 416 OFFCURVE",
"189 404 CURVE SMOOTH",
"178 392 OFFCURVE",
"160 376 OFFCURVE",
"136 356 CURVE SMOOTH",
"112 336 OFFCURVE",
"94 326 OFFCURVE",
"82 326 CURVE SMOOTH",
"79 326 LINE",
"76 326 LINE",
"73 326 LINE",
"70 326 LINE",
"67 326 LINE",
"64 326 LINE",
"61 326 LINE",
"58 326 LINE",
"55 326 LINE",
"53 326 LINE",
"50 326 LINE",
"41 326 LINE SMOOTH",
"30 326 OFFCURVE",
"20 322 OFFCURVE",
"12 314 CURVE SMOOTH",
"4 306 OFFCURVE",
"0 296 OFFCURVE",
"0 285 CURVE SMOOTH",
"0 163 LINE SMOOTH",
"0 152 OFFCURVE",
"4 142 OFFCURVE",
"12 135 CURVE",
"20 127 OFFCURVE",
"30 123 OFFCURVE",
"41 123 CURVE SMOOTH",
"82 123 LINE SMOOTH",
"107 123 OFFCURVE",
"151 88 OFFCURVE",
"212 19 CURVE",
"215 15 OFFCURVE",
"217 13 OFFCURVE",
"217 13 CURVE",
"225 5 OFFCURVE",
"235 1 OFFCURVE",
"247 1 CURVE SMOOTH",
"258 1 OFFCURVE",
"268 5 OFFCURVE",
"276 13 CURVE",
"284 20 OFFCURVE",
"288 30 OFFCURVE",
"288 41 CURVE SMOOTH",
"288 407 LINE SMOOTH",
"288 418 OFFCURVE",
"284 428 OFFCURVE",
"276 436 CURVE SMOOTH",
"268 444 OFFCURVE",
"258 448 OFFCURVE",
"247 448 CURVE SMOOTH"
);
},
{
closed = 1;
nodes = (
"398 373 LINE",
"420 355 OFFCURVE",
"437 333 OFFCURVE",
"450 308 CURVE SMOOTH",
"463 282 OFFCURVE",
"469 254 OFFCURVE",
"469 225 CURVE SMOOTH",
"469 195 OFFCURVE",
"463 167 OFFCURVE",
"450 141 CURVE SMOOTH",
"437 115 OFFCURVE",
"420 93 OFFCURVE",
"398 75 CURVE",
"422 40 LINE",
"450 62 OFFCURVE",
"472 89 OFFCURVE",
"488 121 CURVE SMOOTH",
"504 153 OFFCURVE",
"512 188 OFFCURVE",
"512 225 CURVE SMOOTH",
"512 262 OFFCURVE",
"504 296 OFFCURVE",
"488 328 CURVE SMOOTH",
"472 360 OFFCURVE",
"450 387 OFFCURVE",
"422 409 CURVE"
);
},
{
closed = 1;
nodes = (
"350 302 LINE",
"373 281 OFFCURVE",
"384 255 OFFCURVE",
"384 225 CURVE SMOOTH",
"384 194 OFFCURVE",
"373 168 OFFCURVE",
"350 147 CURVE",
"374 111 LINE",
"409 141 OFFCURVE",
"427 179 OFFCURVE",
"427 225 CURVE SMOOTH",
"427 270 OFFCURVE",
"409 308 OFFCURVE",
"374 338 CURVE"
);
}
);
width = 512;
}
);
unicode = F038;
},
{
glyphname = F039;
lastChange = "2013-10-18 09:36:52 +0800";
layers = (
{
layerId = "D92E8CCE-7036-4CD1-A654-23E4C8CE3D75";
name = Regular;
paths = (
{
closed = 1;
nodes = (
"375 384 LINE",
"353 429 LINE",
"351 434 OFFCURVE",
"346 439 OFFCURVE",
"338 443 CURVE",
"330 446 OFFCURVE",
"322 448 OFFCURVE",
"313 448 CURVE SMOOTH",
"191 448 LINE SMOOTH",
"182 448 OFFCURVE",
"174 446 OFFCURVE",
"167 443 CURVE",
"159 439 OFFCURVE",
"154 434 OFFCURVE",
"151 429 CURVE",
"130 384 LINE",
"64 384 LINE SMOOTH",
"45 384 OFFCURVE",
"31 381 OFFCURVE",
"20 376 CURVE SMOOTH",
"9 371 OFFCURVE",
"3 365 OFFCURVE",
"2 360 CURVE",
"0 352 LINE",
"0 32 LINE SMOOTH",
"0 29 OFFCURVE",
"1 26 OFFCURVE",
"2 23 CURVE SMOOTH",
"3 20 OFFCURVE",
"9 15 OFFCURVE",
"20 9 CURVE SMOOTH",
"31 3 OFFCURVE",
"45 0 OFFCURVE",
"64 0 CURVE SMOOTH",
"448 0 LINE SMOOTH",
"467 0 OFFCURVE",
"481 3 OFFCURVE",
"492 8 CURVE SMOOTH",
"503 13 OFFCURVE",
"509 19 OFFCURVE",
"510 24 CURVE",
"512 32 LINE",
"512 352 LINE SMOOTH",
"512 353 OFFCURVE",
"512 354 OFFCURVE",
"512 356 CURVE",
"511 357 OFFCURVE",
"510 360 OFFCURVE",
"508 364 CURVE",
"505 367 OFFCURVE",
"502 370 OFFCURVE",
"498 373 CURVE SMOOTH",
"494 376 OFFCURVE",
"488 378 OFFCURVE",
"479 381 CURVE",
"470 383 OFFCURVE",
"460 384 OFFCURVE",
"449 384 CURVE SMOOTH"
);
},
{
closed = 1;
nodes = (
"322 77 OFFCURVE",
"291 64 OFFCURVE",
"256 64 CURVE SMOOTH",
"221 64 OFFCURVE",
"191 77 OFFCURVE",
"166 102 CURVE SMOOTH",
"141 127 OFFCURVE",
"128 157 OFFCURVE",
"128 192 CURVE SMOOTH",
"128 227 OFFCURVE",
"141 258 OFFCURVE",
"166 283 CURVE SMOOTH",
"191 308 OFFCURVE",
"221 320 OFFCURVE",
"256 320 CURVE SMOOTH",
"291 320 OFFCURVE",
"322 308 OFFCURVE",
"347 283 CURVE SMOOTH",
"372 258 OFFCURVE",
"384 227 OFFCURVE",
"384 192 CURVE SMOOTH",
"384 157 OFFCURVE",
"372 127 OFFCURVE",
"347 102 CURVE SMOOTH"
);
},
{
closed = 1;
nodes = (
"297 264 OFFCURVE",
"278 272 OFFCURVE",
"256 272 CURVE SMOOTH",
"234 272 OFFCURVE",
"215 264 OFFCURVE",
"200 249 CURVE SMOOTH",
"184 233 OFFCURVE",
"176 214 OFFCURVE",
"176 192 CURVE SMOOTH",
"176 170 OFFCURVE",
"184 151 OFFCURVE",
"200 136 CURVE",
"215 120 OFFCURVE",
"234 112 OFFCURVE",
"256 112 CURVE SMOOTH",
"278 112 OFFCURVE",
"297 120 OFFCURVE",
"313 136 CURVE SMOOTH",
"328 151 OFFCURVE",
"336 170 OFFCURVE",
"336 192 CURVE SMOOTH",
"336 214 OFFCURVE",
"328 233 OFFCURVE",
"313 249 CURVE"
);
}
);
width = 512;
}
);
unicode = F039;
},
{
glyphname = F040;
lastChange = "2013-10-18 09:36:59 +0800";
layers = (
{
layerId = "D92E8CCE-7036-4CD1-A654-23E4C8CE3D75";
name = Regular;
paths = (
{
closed = 1;
nodes = (
"480 355 LINE",
"469 374 OFFCURVE",
"455 392 OFFCURVE",
"440 407 CURVE SMOOTH",
"424 423 OFFCURVE",
"406 437 OFFCURVE",
"387 448 CURVE",
"419 480 LINE",
"450 480 OFFCURVE",
"474 472 OFFCURVE",
"489 457 CURVE SMOOTH",
"496 450 OFFCURVE",
"501 440 OFFCURVE",
"505 429 CURVE SMOOTH",
"509 417 OFFCURVE",
"511 407 OFFCURVE",
"511 399 CURVE",
"512 387 LINE"
);
},
{
closed = 1;
nodes = (
"194 64 LINE",
"96 64 LINE",
"96 162 LINE",
"108 173 LINE",
"129 163 OFFCURVE",
"148 150 OFFCURVE",
"165 133 CURVE SMOOTH",
"182 116 OFFCURVE",
"195 97 OFFCURVE",
"205 76 CURVE"
);
},
{
closed = 1;
nodes = (
"233 104 LINE",
"221 124 OFFCURVE",
"207 142 OFFCURVE",
"191 158 CURVE SMOOTH",
"174 175 OFFCURVE",
"156 189 OFFCURVE",
"136 201 CURVE",
"360 421 LINE",
"381 412 OFFCURVE",
"399 399 OFFCURVE",
"415 383 CURVE SMOOTH",
"431 367 OFFCURVE",
"444 349 OFFCURVE",
"453 328 CURVE"
);
},
{
closed = 1;
nodes = (
"64 416 LINE",
"64 32 LINE",
"448 32 LINE",
"448 192 LINE",
"512 256 LINE",
"512 15 LINE SMOOTH",
"512 2 OFFCURVE",
"508 -9 OFFCURVE",
"499 -18 CURVE SMOOTH",
"490 -27 OFFCURVE",
"478 -32 OFFCURVE",
"465 -32 CURVE SMOOTH",
"47 -32 LINE SMOOTH",
"34 -32 OFFCURVE",
"23 -27 OFFCURVE",
"14 -18 CURVE SMOOTH",
"5 -9 OFFCURVE",
"0 2 OFFCURVE",
"0 15 CURVE SMOOTH",
"0 433 LINE SMOOTH",
"0 446 OFFCURVE",
"5 458 OFFCURVE",
"14 467 CURVE SMOOTH",
"23 476 OFFCURVE",
"34 480 OFFCURVE",
"47 480 CURVE SMOOTH",
"288 480 LINE",
"224 416 LINE"
);
}
);
width = 512;
}
);
unicode = F040;
},
{
glyphname = F041;
lastChange = "2013-10-28 10:31:32 +0800";
layers = (
{
layerId = "D92E8CCE-7036-4CD1-A654-23E4C8CE3D75";
name = Regular;
paths = (
{
closed = 1;
nodes = (
"173 108 LINE",
"156 112 OFFCURVE",
"136 111 OFFCURVE",
"117 103 CURVE SMOOTH",
"73 87 OFFCURVE",
"57 47 OFFCURVE",
"69 14 CURVE SMOOTH",
"81 -18 OFFCURVE",
"115 -32 OFFCURVE",
"159 -15 CURVE SMOOTH",
"197 -1 OFFCURVE",
"221 29 OFFCURVE",
"220 58 CURVE",
"220 58 OFFCURVE",
"220 224 OFFCURVE",
"220 316 CURVE",
"407 359 LINE",
"407 161 LINE",
"390 164 OFFCURVE",
"370 163 OFFCURVE",
"351 156 CURVE SMOOTH",
"307 139 OFFCURVE",
"291 100 OFFCURVE",
"303 67 CURVE SMOOTH",
"314 34 OFFCURVE",
"349 21 OFFCURVE",
"393 37 CURVE SMOOTH",
"430 51 OFFCURVE",
"455 82 OFFCURVE",
"454 111 CURVE",
"454 480 LINE",
"173 420 LINE"
);
}
);
width = 512;
}
);
unicode = F041;
},
{
glyphname = F042;
lastChange = "2013-11-15 05:06:55 +0800";
layers = (
{
layerId = "D92E8CCE-7036-4CD1-A654-23E4C8CE3D75";
name = Regular;
paths = (
{
closed = 1;
nodes = (
"286 442 LINE SMOOTH",
"278 449 OFFCURVE",
"268 453 OFFCURVE",
"260 453 CURVE",
"248 454 OFFCURVE",
"236 450 OFFCURVE",
"227 442 CURVE SMOOTH",
"55 273 LINE SMOOTH",
"38 257 OFFCURVE",
"38 231 OFFCURVE",
"55 214 CURVE SMOOTH",
"72 198 OFFCURVE",
"99 198 OFFCURVE",
"115 214 CURVE SMOOTH",
"207 304 LINE",
"207 28 LINE SMOOTH",
"207 4 OFFCURVE",
"235 -6 OFFCURVE",
"259 -6 CURVE SMOOTH",
"282 -6 OFFCURVE",
"307 4 OFFCURVE",
"307 28 CURVE SMOOTH",
"307 304 LINE",
"397 214 LINE SMOOTH",
"414 198 OFFCURVE",
"441 198 OFFCURVE",
"457 214 CURVE SMOOTH",
"474 231 OFFCURVE",
"474 257 OFFCURVE",
"457 273 CURVE SMOOTH"
);
}
);
width = 512;
}
);
unicode = F042;
},
{
glyphname = F043;
lastChange = "2013-11-15 03:45:02 +0800";
layers = (
{
layerId = "D92E8CCE-7036-4CD1-A654-23E4C8CE3D75";
name = Regular;
paths = (
{
closed = 1;
nodes = (
"384 320 LINE",
"384 256 LINE",
"288 256 LINE",
"288 352 LINE",
"352 352 LINE",
"256 480 LINE",
"160 352 LINE",
"224 352 LINE",
"224 256 LINE",
"128 256 LINE",
"128 320 LINE",
"0 224 LINE",
"128 128 LINE",
"128 192 LINE",
"224 192 LINE",
"224 96 LINE",
"160 96 LINE",
"256 -32 LINE",
"352 96 LINE",
"288 96 LINE",
"288 192 LINE",
"384 192 LINE",
"384 128 LINE",
"512 224 LINE"
);
}
